<?xml version="1.0" encoding="utf-8" standalone="no"?>
<!-- Creator: ESRI ArcMap 10.0.4.4000 -->
<!DOCTYPE svg PUBLIC "-//W3C//DTD SVG 1.1//EN"  "http://www.w3.org/Graphics/SVG/1.1/DTD/svg11.dtd">
<svg width="477.94961pt" height="659.02677pt" viewBox="0 0 477.94961 659.02677" enable-background="new 0 0 477.94961 659.02677"
	version="1.1" xmlns="http://www.w3.org/2000/svg" xmlns:xlink="http://www.w3.org/1999/xlink" >
	<g id="Layers">
		<g id="WTGs">
			<clipPath id="SVG_CP_1">
				<path d="M0,659.02677L0,0L477.94961,0L477.94961,659.02677L0,659.02677z"/>
			</clipPath>
			<path clip-path="url(#SVG_CP_1)" fill="#029400" fill-rule="evenodd" stroke="#000000" stroke-width="0.96012" stroke-miterlimit="10" stroke-linecap="round" stroke-linejoin="round" d="
				M277.47545,475.45859C277.47545,474.39816,276.562,473.53851,275.43519,473.53851C274.30839,473.53851,273.39493,474.39816,273.39493,475.45859
				C273.39493,476.51901,274.30839,477.37866,275.43519,477.37866C276.562,477.37866,277.47545,476.51901,277.47545,475.45859z"/>
			<path clip-path="url(#SVG_CP_1)" fill="#029400" fill-rule="evenodd" stroke="#000000" stroke-width="0.96012" stroke-miterlimit="10" stroke-linecap="round" stroke-linejoin="round" d="
				M293.79754,475.45859C293.79754,474.39816,292.88408,473.53851,291.75728,473.53851C290.63047,473.53851,289.71702,474.39816
				,289.71702,475.45859C289.71702,476.51901,290.63047,477.37866,291.75728,477.37866C292.88408,477.37866,293.79754,476.51901
				,293.79754,475.45859z"/>
			<path clip-path="url(#SVG_CP_1)" fill="#029400" fill-rule="evenodd" stroke="#000000" stroke-width="0.96012" stroke-miterlimit="10" stroke-linecap="round" stroke-linejoin="round" d="
				M309.87959,475.45859C309.87959,474.39816,309.01987,473.53851,307.95935,473.53851C306.89882,473.53851,306.0391,474.39816,
				306.0391,475.45859C306.0391,476.51901,306.89882,477.37866,307.95935,477.37866C309.01987,477.37866,309.87959,476.51901,309.87959,475.45859
				z"/>
			<path clip-path="url(#SVG_CP_1)" fill="#029400" fill-rule="evenodd" stroke="#000000" stroke-width="0.96012" stroke-miterlimit="10" stroke-linecap="round" stroke-linejoin="round" d="
				M326.20168,475.45859C326.20168,474.39816,325.34195,473.53851,324.28143,473.53851C323.22091,473.53851,322.36119,474.39816
				,322.36119,475.45859C322.36119,476.51901,323.22091,477.37866,324.28143,477.37866C325.34195,477.37866,326.20168,476.51901
				,326.20168,475.45859z"/>
			<path clip-path="url(#SVG_CP_1)" fill="#029400" fill-rule="evenodd" stroke="#000000" stroke-width="0.96012" stroke-miterlimit="10" stroke-linecap="round" stroke-linejoin="round" d="
				M342.76379,475.45859C342.76379,474.39816,341.85034,473.53851,340.72353,473.53851C339.59673,473.53851,338.68327,474.39816
				,338.68327,475.45859C338.68327,476.51901,339.59673,477.37866,340.72353,477.37866C341.85034,477.37866,342.76379,476.51901
				,342.76379,475.45859z"/>
			<path clip-path="url(#SVG_CP_1)" fill="#029400" fill-rule="evenodd" stroke="#000000" stroke-width="0.96012" stroke-miterlimit="10" stroke-linecap="round" stroke-linejoin="round" d="
				M359.08588,475.45859C359.08588,474.39816,358.17242,473.53851,357.04562,473.53851C355.91881,473.53851,355.00536,474.39816
				,355.00536,475.45859C355.00536,476.51901,355.91881,477.37866,357.04562,477.37866C358.17242,477.37866,359.08588,476.51901
				,359.08588,475.45859z"/>
			<path clip-path="url(#SVG_CP_1)" fill="#029400" fill-rule="evenodd" stroke="#000000" stroke-width="0.96012" stroke-miterlimit="10" stroke-linecap="round" stroke-linejoin="round" d="
				M375.16793,475.45859C375.16793,474.39816,374.30821,473.53851,373.24769,473.53851C372.18717,473.53851,371.32744,474.39816
				,371.32744,475.45859C371.32744,476.51901,372.18717,477.37866,373.24769,477.37866C374.30821,477.37866,375.16793,476.51901
				,375.16793,475.45859z"/>
			<path clip-path="url(#SVG_CP_1)" fill="#029400" fill-rule="evenodd" stroke="#000000" stroke-width="0.96012" stroke-miterlimit="10" stroke-linecap="round" stroke-linejoin="round" d="
				M391.49002,475.45859C391.49002,474.39816,390.6303,473.53851,389.56977,473.53851C388.50925,473.53851,387.64953,474.39816,
				387.64953,475.45859C387.64953,476.51901,388.50925,477.37866,389.56977,477.37866C390.6303,477.37866,391.49002,476.51901,391.49002,475.45859
				z"/>
			<path clip-path="url(#SVG_CP_1)" fill="#029400" fill-rule="evenodd" stroke="#000000" stroke-width="0.96012" stroke-miterlimit="10" stroke-linecap="round" stroke-linejoin="round" d="
				M408.05213,475.45859C408.05213,474.39816,407.13868,473.53851,406.01187,473.53851C404.88507,473.53851,403.97161,474.39816
				,403.97161,475.45859C403.97161,476.51901,404.88507,477.37866,406.01187,477.37866C407.13868,477.37866,408.05213,476.51901
				,408.05213,475.45859z"/>
			<path clip-path="url(#SVG_CP_1)" fill="#029400" fill-rule="evenodd" stroke="#000000" stroke-width="0.96012" stroke-miterlimit="10" stroke-linecap="round" stroke-linejoin="round" d="
				M277.47545,459.13795C277.47545,458.07752,276.562,457.21787,275.43519,457.21787C274.30839,457.21787,273.39493,458.07752,273.39493,459.13795
				C273.39493,460.19838,274.30839,461.05802,275.43519,461.05802C276.562,461.05802,277.47545,460.19838,277.47545,459.13795z"/>
			<path clip-path="url(#SVG_CP_1)" fill="#029400" fill-rule="evenodd" stroke="#000000" stroke-width="0.96012" stroke-miterlimit="10" stroke-linecap="round" stroke-linejoin="round" d="
				M293.79754,459.13795C293.79754,458.07752,292.88408,457.21787,291.75728,457.21787C290.63047,457.21787,289.71702,458.07752
				,289.71702,459.13795C289.71702,460.19838,290.63047,461.05802,291.75728,461.05802C292.88408,461.05802,293.79754,460.19838
				,293.79754,459.13795z"/>
			<path clip-path="url(#SVG_CP_1)" fill="#029400" fill-rule="evenodd" stroke="#000000" stroke-width="0.96012" stroke-miterlimit="10" stroke-linecap="round" stroke-linejoin="round" d="
				M309.87959,459.13795C309.87959,458.07752,309.01987,457.21787,307.95935,457.21787C306.89882,457.21787,306.0391,458.07752,
				306.0391,459.13795C306.0391,460.19838,306.89882,461.05802,307.95935,461.05802C309.01987,461.05802,309.87959,460.19838,309.87959,459.13795
				z"/>
			<path clip-path="url(#SVG_CP_1)" fill="#029400" fill-rule="evenodd" stroke="#000000" stroke-width="0.96012" stroke-miterlimit="10" stroke-linecap="round" stroke-linejoin="round" d="
				M326.20168,459.13795C326.20168,458.07752,325.34195,457.21787,324.28143,457.21787C323.22091,457.21787,322.36119,458.07752
				,322.36119,459.13795C322.36119,460.19838,323.22091,461.05802,324.28143,461.05802C325.34195,461.05802,326.20168,460.19838
				,326.20168,459.13795z"/>
			<path clip-path="url(#SVG_CP_1)" fill="#029400" fill-rule="evenodd" stroke="#000000" stroke-width="0.96012" stroke-miterlimit="10" stroke-linecap="round" stroke-linejoin="round" d="
				M342.76379,459.13795C342.76379,458.07752,341.85034,457.21787,340.72353,457.21787C339.59673,457.21787,338.68327,458.07752
				,338.68327,459.13795C338.68327,460.19838,339.59673,461.05802,340.72353,461.05802C341.85034,461.05802,342.76379,460.19838
				,342.76379,459.13795z"/>
			<path clip-path="url(#SVG_CP_1)" fill="#029400" fill-rule="evenodd" stroke="#000000" stroke-width="0.96012" stroke-miterlimit="10" stroke-linecap="round" stroke-linejoin="round" d="
				M359.08588,459.13795C359.08588,458.07752,358.17242,457.21787,357.04562,457.21787C355.91881,457.21787,355.00536,458.07752
				,355.00536,459.13795C355.00536,460.19838,355.91881,461.05802,357.04562,461.05802C358.17242,461.05802,359.08588,460.19838
				,359.08588,459.13795z"/>
			<path clip-path="url(#SVG_CP_1)" fill="#029400" fill-rule="evenodd" stroke="#000000" stroke-width="0.96012" stroke-miterlimit="10" stroke-linecap="round" stroke-linejoin="round" d="
				M375.16793,459.13795C375.16793,458.07752,374.30821,457.21787,373.24769,457.21787C372.18717,457.21787,371.32744,458.07752
				,371.32744,459.13795C371.32744,460.19838,372.18717,461.05802,373.24769,461.05802C374.30821,461.05802,375.16793,460.19838
				,375.16793,459.13795z"/>
			<path clip-path="url(#SVG_CP_1)" fill="#029400" fill-rule="evenodd" stroke="#000000" stroke-width="0.96012" stroke-miterlimit="10" stroke-linecap="round" stroke-linejoin="round" d="
				M391.49002,459.13795C391.49002,458.07752,390.6303,457.21787,389.56977,457.21787C388.50925,457.21787,387.64953,458.07752,
				387.64953,459.13795C387.64953,460.19838,388.50925,461.05802,389.56977,461.05802C390.6303,461.05802,391.49002,460.19838,391.49002,459.13795
				z"/>
			<path clip-path="url(#SVG_CP_1)" fill="#029400" fill-rule="evenodd" stroke="#000000" stroke-width="0.96012" stroke-miterlimit="10" stroke-linecap="round" stroke-linejoin="round" d="
				M408.05213,459.13795C408.05213,458.07752,407.13868,457.21787,406.01187,457.21787C404.88507,457.21787,403.97161,458.07752
				,403.97161,459.13795C403.97161,460.19838,404.88507,461.05802,406.01187,461.05802C407.13868,461.05802,408.05213,460.19838
				,408.05213,459.13795z"/>
			<path clip-path="url(#SVG_CP_1)" fill="#029400" fill-rule="evenodd" stroke="#000000" stroke-width="0.96012" stroke-miterlimit="10" stroke-linecap="round" stroke-linejoin="round" d="
				M424.37422,459.13795C424.37422,458.07752,423.46076,457.21787,422.33396,457.21787C421.20715,457.21787,420.2937,458.07752,
				420.2937,459.13795C420.2937,460.19838,421.20715,461.05802,422.33396,461.05802C423.46076,461.05802,424.37422,460.19838,424.37422,459.13795
				z"/>
			<path clip-path="url(#SVG_CP_1)" fill="#029400" fill-rule="evenodd" stroke="#000000" stroke-width="0.96012" stroke-miterlimit="10" stroke-linecap="round" stroke-linejoin="round" d="
				M293.79754,442.93731C293.79754,441.81061,292.88408,440.89723,291.75728,440.89723C290.63047,440.89723,289.71702,441.81061
				,289.71702,442.93731C289.71702,444.06402,290.63047,444.97739,291.75728,444.97739C292.88408,444.97739,293.79754,444.06402
				,293.79754,442.93731z"/>
			<path clip-path="url(#SVG_CP_1)" fill="#029400" fill-rule="evenodd" stroke="#000000" stroke-width="0.96012" stroke-miterlimit="10" stroke-linecap="round" stroke-linejoin="round" d="
				M309.87959,442.93731C309.87959,441.81061,309.01987,440.89723,307.95935,440.89723C306.89882,440.89723,306.0391,441.81061,
				306.0391,442.93731C306.0391,444.06402,306.89882,444.97739,307.95935,444.97739C309.01987,444.97739,309.87959,444.06402,309.87959,442.93731
				z"/>
			<path clip-path="url(#SVG_CP_1)" fill="#029400" fill-rule="evenodd" stroke="#000000" stroke-width="0.96012" stroke-miterlimit="10" stroke-linecap="round" stroke-linejoin="round" d="
				M326.20168,442.93731C326.20168,441.81061,325.34195,440.89723,324.28143,440.89723C323.22091,440.89723,322.36119,441.81061
				,322.36119,442.93731C322.36119,444.06402,323.22091,444.97739,324.28143,444.97739C325.34195,444.97739,326.20168,444.06402
				,326.20168,442.93731z"/>
			<path clip-path="url(#SVG_CP_1)" fill="#029400" fill-rule="evenodd" stroke="#000000" stroke-width="0.96012" stroke-miterlimit="10" stroke-linecap="round" stroke-linejoin="round" d="
				M342.76379,442.93731C342.76379,441.81061,341.85034,440.89723,340.72353,440.89723C339.59673,440.89723,338.68327,441.81061
				,338.68327,442.93731C338.68327,444.06402,339.59673,444.97739,340.72353,444.97739C341.85034,444.97739,342.76379,444.06402
				,342.76379,442.93731z"/>
			<path clip-path="url(#SVG_CP_1)" fill="#029400" fill-rule="evenodd" stroke="#000000" stroke-width="0.96012" stroke-miterlimit="10" stroke-linecap="round" stroke-linejoin="round" d="
				M359.08588,442.93731C359.08588,441.81061,358.17242,440.89723,357.04562,440.89723C355.91881,440.89723,355.00536,441.81061
				,355.00536,442.93731C355.00536,444.06402,355.91881,444.97739,357.04562,444.97739C358.17242,444.97739,359.08588,444.06402
				,359.08588,442.93731z"/>
			<path clip-path="url(#SVG_CP_1)" fill="#029400" fill-rule="evenodd" stroke="#000000" stroke-width="0.96012" stroke-miterlimit="10" stroke-linecap="round" stroke-linejoin="round" d="
				M375.16793,442.93731C375.16793,441.81061,374.30821,440.89723,373.24769,440.89723C372.18717,440.89723,371.32744,441.81061
				,371.32744,442.93731C371.32744,444.06402,372.18717,444.97739,373.24769,444.97739C374.30821,444.97739,375.16793,444.06402
				,375.16793,442.93731z"/>
			<path clip-path="url(#SVG_CP_1)" fill="#029400" fill-rule="evenodd" stroke="#000000" stroke-width="0.96012" stroke-miterlimit="10" stroke-linecap="round" stroke-linejoin="round" d="
				M391.49002,442.93731C391.49002,441.81061,390.6303,440.89723,389.56977,440.89723C388.50925,440.89723,387.64953,441.81061,
				387.64953,442.93731C387.64953,444.06402,388.50925,444.97739,389.56977,444.97739C390.6303,444.97739,391.49002,444.06402,391.49002,442.93731
				z"/>
			<path clip-path="url(#SVG_CP_1)" fill="#029400" fill-rule="evenodd" stroke="#000000" stroke-width="0.96012" stroke-miterlimit="10" stroke-linecap="round" stroke-linejoin="round" d="
				M408.05213,442.93731C408.05213,441.81061,407.13868,440.89723,406.01187,440.89723C404.88507,440.89723,403.97161,441.81061
				,403.97161,442.93731C403.97161,444.06402,404.88507,444.97739,406.01187,444.97739C407.13868,444.97739,408.05213,444.06402
				,408.05213,442.93731z"/>
			<path clip-path="url(#SVG_CP_1)" fill="#029400" fill-rule="evenodd" stroke="#000000" stroke-width="0.96012" stroke-miterlimit="10" stroke-linecap="round" stroke-linejoin="round" d="
				M424.37422,442.93731C424.37422,441.81061,423.46076,440.89723,422.33396,440.89723C421.20715,440.89723,420.2937,441.81061,
				420.2937,442.93731C420.2937,444.06402,421.20715,444.97739,422.33396,444.97739C423.46076,444.97739,424.37422,444.06402,424.37422,442.93731
				z"/>
			<path clip-path="url(#SVG_CP_1)" fill="#029400" fill-rule="evenodd" stroke="#000000" stroke-width="0.96012" stroke-miterlimit="10" stroke-linecap="round" stroke-linejoin="round" d="
				M440.45627,442.93731C440.45627,441.81061,439.59655,440.89723,438.53603,440.89723C437.47551,440.89723,436.61578,441.81061
				,436.61578,442.93731C436.61578,444.06402,437.47551,444.97739,438.53603,444.97739C439.59655,444.97739,440.45627,444.06402
				,440.45627,442.93731z"/>
			<path clip-path="url(#SVG_CP_1)" fill="#029400" fill-rule="evenodd" stroke="#000000" stroke-width="0.96012" stroke-miterlimit="10" stroke-linecap="round" stroke-linejoin="round" d="
				M293.79754,426.61668C293.79754,425.48997,292.88408,424.5766,291.75728,424.5766C290.63047,424.5766,289.71702,425.48997,289.71702,426.61668
				C289.71702,427.74338,290.63047,428.65676,291.75728,428.65676C292.88408,428.65676,293.79754,427.74338,293.79754,426.61668
				z"/>
			<path clip-path="url(#SVG_CP_1)" fill="#029400" fill-rule="evenodd" stroke="#000000" stroke-width="0.96012" stroke-miterlimit="10" stroke-linecap="round" stroke-linejoin="round" d="
				M309.87959,426.61668C309.87959,425.48997,309.01987,424.5766,307.95935,424.5766C306.89882,424.5766,306.0391,425.48997,306.0391,426.61668
				C306.0391,427.74338,306.89882,428.65676,307.95935,428.65676C309.01987,428.65676,309.87959,427.74338,309.87959,426.61668z
				"/>
			<path clip-path="url(#SVG_CP_1)" fill="#029400" fill-rule="evenodd" stroke="#000000" stroke-width="0.96012" stroke-miterlimit="10" stroke-linecap="round" stroke-linejoin="round" d="
				M326.20168,426.61668C326.20168,425.48997,325.34195,424.5766,324.28143,424.5766C323.22091,424.5766,322.36119,425.48997,322.36119,426.61668
				C322.36119,427.74338,323.22091,428.65676,324.28143,428.65676C325.34195,428.65676,326.20168,427.74338,326.20168,426.61668
				z"/>
			<path clip-path="url(#SVG_CP_1)" fill="#029400" fill-rule="evenodd" stroke="#000000" stroke-width="0.96012" stroke-miterlimit="10" stroke-linecap="round" stroke-linejoin="round" d="
				M342.76379,426.61668C342.76379,425.48997,341.85034,424.5766,340.72353,424.5766C339.59673,424.5766,338.68327,425.48997,338.68327,426.61668
				C338.68327,427.74338,339.59673,428.65676,340.72353,428.65676C341.85034,428.65676,342.76379,427.74338,342.76379,426.61668
				z"/>
			<path clip-path="url(#SVG_CP_1)" fill="#029400" fill-rule="evenodd" stroke="#000000" stroke-width="0.96012" stroke-miterlimit="10" stroke-linecap="round" stroke-linejoin="round" d="
				M359.08588,426.61668C359.08588,425.48997,358.17242,424.5766,357.04562,424.5766C355.91881,424.5766,355.00536,425.48997,355.00536,426.61668
				C355.00536,427.74338,355.91881,428.65676,357.04562,428.65676C358.17242,428.65676,359.08588,427.74338,359.08588,426.61668
				z"/>
			<path clip-path="url(#SVG_CP_1)" fill="#029400" fill-rule="evenodd" stroke="#000000" stroke-width="0.96012" stroke-miterlimit="10" stroke-linecap="round" stroke-linejoin="round" d="
				M375.16793,426.61668C375.16793,425.48997,374.30821,424.5766,373.24769,424.5766C372.18717,424.5766,371.32744,425.48997,371.32744,426.61668
				C371.32744,427.74338,372.18717,428.65676,373.24769,428.65676C374.30821,428.65676,375.16793,427.74338,375.16793,426.61668
				z"/>
			<path clip-path="url(#SVG_CP_1)" fill="#029400" fill-rule="evenodd" stroke="#000000" stroke-width="0.96012" stroke-miterlimit="10" stroke-linecap="round" stroke-linejoin="round" d="
				M391.49002,426.61668C391.49002,425.48997,390.6303,424.5766,389.56977,424.5766C388.50925,424.5766,387.64953,425.48997,387.64953,426.61668
				C387.64953,427.74338,388.50925,428.65676,389.56977,428.65676C390.6303,428.65676,391.49002,427.74338,391.49002,426.61668z
				"/>
			<path clip-path="url(#SVG_CP_1)" fill="#029400" fill-rule="evenodd" stroke="#000000" stroke-width="0.96012" stroke-miterlimit="10" stroke-linecap="round" stroke-linejoin="round" d="
				M408.05213,426.61668C408.05213,425.48997,407.13868,424.5766,406.01187,424.5766C404.88507,424.5766,403.97161,425.48997,403.97161,426.61668
				C403.97161,427.74338,404.88507,428.65676,406.01187,428.65676C407.13868,428.65676,408.05213,427.74338,408.05213,426.61668
				z"/>
			<path clip-path="url(#SVG_CP_1)" fill="#029400" fill-rule="evenodd" stroke="#000000" stroke-width="0.96012" stroke-miterlimit="10" stroke-linecap="round" stroke-linejoin="round" d="
				M424.37422,426.61668C424.37422,425.48997,423.46076,424.5766,422.33396,424.5766C421.20715,424.5766,420.2937,425.48997,420.2937,426.61668
				C420.2937,427.74338,421.20715,428.65676,422.33396,428.65676C423.46076,428.65676,424.37422,427.74338,424.37422,426.61668z
				"/>
			<path clip-path="url(#SVG_CP_1)" fill="#029400" fill-rule="evenodd" stroke="#000000" stroke-width="0.96012" stroke-miterlimit="10" stroke-linecap="round" stroke-linejoin="round" d="
				M440.45627,426.61668C440.45627,425.48997,439.59655,424.5766,438.53603,424.5766C437.47551,424.5766,436.61578,425.48997,436.61578,426.61668
				C436.61578,427.74338,437.47551,428.65676,438.53603,428.65676C439.59655,428.65676,440.45627,427.74338,440.45627,426.61668
				z"/>
			<path clip-path="url(#SVG_CP_1)" fill="#029400" fill-rule="evenodd" stroke="#000000" stroke-width="0.96012" stroke-miterlimit="10" stroke-linecap="round" stroke-linejoin="round" d="
				M293.79754,410.29604C293.79754,409.16933,292.88408,408.25596,291.75728,408.25596C290.63047,408.25596,289.71702,409.16933
				,289.71702,410.29604C289.71702,411.42274,290.63047,412.33612,291.75728,412.33612C292.88408,412.33612,293.79754,411.42274
				,293.79754,410.29604z"/>
			<path clip-path="url(#SVG_CP_1)" fill="#029400" fill-rule="evenodd" stroke="#000000" stroke-width="0.96012" stroke-miterlimit="10" stroke-linecap="round" stroke-linejoin="round" d="
				M309.87959,410.29604C309.87959,409.16933,309.01987,408.25596,307.95935,408.25596C306.89882,408.25596,306.0391,409.16933,
				306.0391,410.29604C306.0391,411.42274,306.89882,412.33612,307.95935,412.33612C309.01987,412.33612,309.87959,411.42274,309.87959,410.29604
				z"/>
			<path clip-path="url(#SVG_CP_1)" fill="#029400" fill-rule="evenodd" stroke="#000000" stroke-width="0.96012" stroke-miterlimit="10" stroke-linecap="round" stroke-linejoin="round" d="
				M326.20168,410.29604C326.20168,409.16933,325.34195,408.25596,324.28143,408.25596C323.22091,408.25596,322.36119,409.16933
				,322.36119,410.29604C322.36119,411.42274,323.22091,412.33612,324.28143,412.33612C325.34195,412.33612,326.20168,411.42274
				,326.20168,410.29604z"/>
			<path clip-path="url(#SVG_CP_1)" fill="#029400" fill-rule="evenodd" stroke="#000000" stroke-width="0.96012" stroke-miterlimit="10" stroke-linecap="round" stroke-linejoin="round" d="
				M342.76379,410.29604C342.76379,409.16933,341.85034,408.25596,340.72353,408.25596C339.59673,408.25596,338.68327,409.16933
				,338.68327,410.29604C338.68327,411.42274,339.59673,412.33612,340.72353,412.33612C341.85034,412.33612,342.76379,411.42274
				,342.76379,410.29604z"/>
			<path clip-path="url(#SVG_CP_1)" fill="#029400" fill-rule="evenodd" stroke="#000000" stroke-width="0.96012" stroke-miterlimit="10" stroke-linecap="round" stroke-linejoin="round" d="
				M359.08588,410.29604C359.08588,409.16933,358.17242,408.25596,357.04562,408.25596C355.91881,408.25596,355.00536,409.16933
				,355.00536,410.29604C355.00536,411.42274,355.91881,412.33612,357.04562,412.33612C358.17242,412.33612,359.08588,411.42274
				,359.08588,410.29604z"/>
			<path clip-path="url(#SVG_CP_1)" fill="#029400" fill-rule="evenodd" stroke="#000000" stroke-width="0.96012" stroke-miterlimit="10" stroke-linecap="round" stroke-linejoin="round" d="
				M375.16793,410.29604C375.16793,409.16933,374.30821,408.25596,373.24769,408.25596C372.18717,408.25596,371.32744,409.16933
				,371.32744,410.29604C371.32744,411.42274,372.18717,412.33612,373.24769,412.33612C374.30821,412.33612,375.16793,411.42274
				,375.16793,410.29604z"/>
			<path clip-path="url(#SVG_CP_1)" fill="#029400" fill-rule="evenodd" stroke="#000000" stroke-width="0.96012" stroke-miterlimit="10" stroke-linecap="round" stroke-linejoin="round" d="
				M391.49002,410.29604C391.49002,409.16933,390.6303,408.25596,389.56977,408.25596C388.50925,408.25596,387.64953,409.16933,
				387.64953,410.29604C387.64953,411.42274,388.50925,412.33612,389.56977,412.33612C390.6303,412.33612,391.49002,411.42274,391.49002,410.29604
				z"/>
			<path clip-path="url(#SVG_CP_1)" fill="#029400" fill-rule="evenodd" stroke="#000000" stroke-width="0.96012" stroke-miterlimit="10" stroke-linecap="round" stroke-linejoin="round" d="
				M408.05213,410.29604C408.05213,409.16933,407.13868,408.25596,406.01187,408.25596C404.88507,408.25596,403.97161,409.16933
				,403.97161,410.29604C403.97161,411.42274,404.88507,412.33612,406.01187,412.33612C407.13868,412.33612,408.05213,411.42274
				,408.05213,410.29604z"/>
			<path clip-path="url(#SVG_CP_1)" fill="#029400" fill-rule="evenodd" stroke="#000000" stroke-width="0.96012" stroke-miterlimit="10" stroke-linecap="round" stroke-linejoin="round" d="
				M424.37422,410.29604C424.37422,409.16933,423.46076,408.25596,422.33396,408.25596C421.20715,408.25596,420.2937,409.16933,
				420.2937,410.29604C420.2937,411.42274,421.20715,412.33612,422.33396,412.33612C423.46076,412.33612,424.37422,411.42274,424.37422,410.29604
				z"/>
			<path clip-path="url(#SVG_CP_1)" fill="#029400" fill-rule="evenodd" stroke="#000000" stroke-width="0.96012" stroke-miterlimit="10" stroke-linecap="round" stroke-linejoin="round" d="
				M440.45627,410.29604C440.45627,409.16933,439.59655,408.25596,438.53603,408.25596C437.47551,408.25596,436.61578,409.16933
				,436.61578,410.29604C436.61578,411.42274,437.47551,412.33612,438.53603,412.33612C439.59655,412.33612,440.45627,411.42274
				,440.45627,410.29604z"/>
			<path clip-path="url(#SVG_CP_1)" fill="#029400" fill-rule="evenodd" stroke="#000000" stroke-width="0.96012" stroke-miterlimit="10" stroke-linecap="round" stroke-linejoin="round" d="
				M293.79754,393.8554C293.79754,392.79497,292.88408,391.93532,291.75728,391.93532C290.63047,391.93532,289.71702,392.79497,
				289.71702,393.8554C289.71702,394.91582,290.63047,395.77547,291.75728,395.77547C292.88408,395.77547,293.79754,394.91582,293.79754,393.8554
				z"/>
			<path clip-path="url(#SVG_CP_1)" fill="#029400" fill-rule="evenodd" stroke="#000000" stroke-width="0.96012" stroke-miterlimit="10" stroke-linecap="round" stroke-linejoin="round" d="
				M309.87959,393.8554C309.87959,392.79497,309.01987,391.93532,307.95935,391.93532C306.89882,391.93532,306.0391,392.79497,306.0391,393.8554
				C306.0391,394.91582,306.89882,395.77547,307.95935,395.77547C309.01987,395.77547,309.87959,394.91582,309.87959,393.8554z"/>
			<path clip-path="url(#SVG_CP_1)" fill="#029400" fill-rule="evenodd" stroke="#000000" stroke-width="0.96012" stroke-miterlimit="10" stroke-linecap="round" stroke-linejoin="round" d="
				M326.20168,393.8554C326.20168,392.79497,325.34195,391.93532,324.28143,391.93532C323.22091,391.93532,322.36119,392.79497,
				322.36119,393.8554C322.36119,394.91582,323.22091,395.77547,324.28143,395.77547C325.34195,395.77547,326.20168,394.91582,326.20168,393.8554
				z"/>
			<path clip-path="url(#SVG_CP_1)" fill="#029400" fill-rule="evenodd" stroke="#000000" stroke-width="0.96012" stroke-miterlimit="10" stroke-linecap="round" stroke-linejoin="round" d="
				M342.76379,393.8554C342.76379,392.79497,341.85034,391.93532,340.72353,391.93532C339.59673,391.93532,338.68327,392.79497,
				338.68327,393.8554C338.68327,394.91582,339.59673,395.77547,340.72353,395.77547C341.85034,395.77547,342.76379,394.91582,342.76379,393.8554
				z"/>
			<path clip-path="url(#SVG_CP_1)" fill="#029400" fill-rule="evenodd" stroke="#000000" stroke-width="0.96012" stroke-miterlimit="10" stroke-linecap="round" stroke-linejoin="round" d="
				M359.08588,393.8554C359.08588,392.79497,358.17242,391.93532,357.04562,391.93532C355.91881,391.93532,355.00536,392.79497,
				355.00536,393.8554C355.00536,394.91582,355.91881,395.77547,357.04562,395.77547C358.17242,395.77547,359.08588,394.91582,359.08588,393.8554
				z"/>
			<path clip-path="url(#SVG_CP_1)" fill="#029400" fill-rule="evenodd" stroke="#000000" stroke-width="0.96012" stroke-miterlimit="10" stroke-linecap="round" stroke-linejoin="round" d="
				M375.16793,393.8554C375.16793,392.79497,374.30821,391.93532,373.24769,391.93532C372.18717,391.93532,371.32744,392.79497,
				371.32744,393.8554C371.32744,394.91582,372.18717,395.77547,373.24769,395.77547C374.30821,395.77547,375.16793,394.91582,375.16793,393.8554
				z"/>
			<path clip-path="url(#SVG_CP_1)" fill="#029400" fill-rule="evenodd" stroke="#000000" stroke-width="0.96012" stroke-miterlimit="10" stroke-linecap="round" stroke-linejoin="round" d="
				M391.49002,393.8554C391.49002,392.79497,390.6303,391.93532,389.56977,391.93532C388.50925,391.93532,387.64953,392.79497,387.64953,393.8554
				C387.64953,394.91582,388.50925,395.77547,389.56977,395.77547C390.6303,395.77547,391.49002,394.91582,391.49002,393.8554z"/>
			<path clip-path="url(#SVG_CP_1)" fill="#029400" fill-rule="evenodd" stroke="#000000" stroke-width="0.96012" stroke-miterlimit="10" stroke-linecap="round" stroke-linejoin="round" d="
				M408.05213,393.8554C408.05213,392.79497,407.13868,391.93532,406.01187,391.93532C404.88507,391.93532,403.97161,392.79497,
				403.97161,393.8554C403.97161,394.91582,404.88507,395.77547,406.01187,395.77547C407.13868,395.77547,408.05213,394.91582,408.05213,393.8554
				z"/>
			<path clip-path="url(#SVG_CP_1)" fill="#029400" fill-rule="evenodd" stroke="#000000" stroke-width="0.96012" stroke-miterlimit="10" stroke-linecap="round" stroke-linejoin="round" d="
				M424.37422,393.8554C424.37422,392.79497,423.46076,391.93532,422.33396,391.93532C421.20715,391.93532,420.2937,392.79497,420.2937,393.8554
				C420.2937,394.91582,421.20715,395.77547,422.33396,395.77547C423.46076,395.77547,424.37422,394.91582,424.37422,393.8554z"/>
			<path clip-path="url(#SVG_CP_1)" fill="#029400" fill-rule="evenodd" stroke="#000000" stroke-width="0.96012" stroke-miterlimit="10" stroke-linecap="round" stroke-linejoin="round" d="
				M440.45627,393.8554C440.45627,392.79497,439.59655,391.93532,438.53603,391.93532C437.47551,391.93532,436.61578,392.79497,
				436.61578,393.8554C436.61578,394.91582,437.47551,395.77547,438.53603,395.77547C439.59655,395.77547,440.45627,394.91582,440.45627,393.8554
				z"/>
			<path clip-path="url(#SVG_CP_1)" fill="#029400" fill-rule="evenodd" stroke="#000000" stroke-width="0.96012" stroke-miterlimit="10" stroke-linecap="round" stroke-linejoin="round" d="
				M293.79754,377.53476C293.79754,376.47433,292.88408,375.61468,291.75728,375.61468C290.63047,375.61468,289.71702,376.47433
				,289.71702,377.53476C289.71702,378.59519,290.63047,379.45483,291.75728,379.45483C292.88408,379.45483,293.79754,378.59519
				,293.79754,377.53476z"/>
			<path clip-path="url(#SVG_CP_1)" fill="#029400" fill-rule="evenodd" stroke="#000000" stroke-width="0.96012" stroke-miterlimit="10" stroke-linecap="round" stroke-linejoin="round" d="
				M309.87959,377.53476C309.87959,376.47433,309.01987,375.61468,307.95935,375.61468C306.89882,375.61468,306.0391,376.47433,
				306.0391,377.53476C306.0391,378.59519,306.89882,379.45483,307.95935,379.45483C309.01987,379.45483,309.87959,378.59519,309.87959,377.53476
				z"/>
			<path clip-path="url(#SVG_CP_1)" fill="#029400" fill-rule="evenodd" stroke="#000000" stroke-width="0.96012" stroke-miterlimit="10" stroke-linecap="round" stroke-linejoin="round" d="
				M326.20168,377.53476C326.20168,376.47433,325.34195,375.61468,324.28143,375.61468C323.22091,375.61468,322.36119,376.47433
				,322.36119,377.53476C322.36119,378.59519,323.22091,379.45483,324.28143,379.45483C325.34195,379.45483,326.20168,378.59519
				,326.20168,377.53476z"/>
			<path clip-path="url(#SVG_CP_1)" fill="#029400" fill-rule="evenodd" stroke="#000000" stroke-width="0.96012" stroke-miterlimit="10" stroke-linecap="round" stroke-linejoin="round" d="
				M342.76379,377.53476C342.76379,376.47433,341.85034,375.61468,340.72353,375.61468C339.59673,375.61468,338.68327,376.47433
				,338.68327,377.53476C338.68327,378.59519,339.59673,379.45483,340.72353,379.45483C341.85034,379.45483,342.76379,378.59519
				,342.76379,377.53476z"/>
			<path clip-path="url(#SVG_CP_1)" fill="#029400" fill-rule="evenodd" stroke="#000000" stroke-width="0.96012" stroke-miterlimit="10" stroke-linecap="round" stroke-linejoin="round" d="
				M359.08588,377.53476C359.08588,376.47433,358.17242,375.61468,357.04562,375.61468C355.91881,375.61468,355.00536,376.47433
				,355.00536,377.53476C355.00536,378.59519,355.91881,379.45483,357.04562,379.45483C358.17242,379.45483,359.08588,378.59519
				,359.08588,377.53476z"/>
			<path clip-path="url(#SVG_CP_1)" fill="#029400" fill-rule="evenodd" stroke="#000000" stroke-width="0.96012" stroke-miterlimit="10" stroke-linecap="round" stroke-linejoin="round" d="
				M375.16793,377.53476C375.16793,376.47433,374.30821,375.61468,373.24769,375.61468C372.18717,375.61468,371.32744,376.47433
				,371.32744,377.53476C371.32744,378.59519,372.18717,379.45483,373.24769,379.45483C374.30821,379.45483,375.16793,378.59519
				,375.16793,377.53476z"/>
			<path clip-path="url(#SVG_CP_1)" fill="#029400" fill-rule="evenodd" stroke="#000000" stroke-width="0.96012" stroke-miterlimit="10" stroke-linecap="round" stroke-linejoin="round" d="
				M391.49002,377.53476C391.49002,376.47433,390.6303,375.61468,389.56977,375.61468C388.50925,375.61468,387.64953,376.47433,
				387.64953,377.53476C387.64953,378.59519,388.50925,379.45483,389.56977,379.45483C390.6303,379.45483,391.49002,378.59519,391.49002,377.53476
				z"/>
			<path clip-path="url(#SVG_CP_1)" fill="#029400" fill-rule="evenodd" stroke="#000000" stroke-width="0.96012" stroke-miterlimit="10" stroke-linecap="round" stroke-linejoin="round" d="
				M408.05213,377.53476C408.05213,376.47433,407.13868,375.61468,406.01187,375.61468C404.88507,375.61468,403.97161,376.47433
				,403.97161,377.53476C403.97161,378.59519,404.88507,379.45483,406.01187,379.45483C407.13868,379.45483,408.05213,378.59519
				,408.05213,377.53476z"/>
			<path clip-path="url(#SVG_CP_1)" fill="#029400" fill-rule="evenodd" stroke="#000000" stroke-width="0.96012" stroke-miterlimit="10" stroke-linecap="round" stroke-linejoin="round" d="
				M424.37422,377.53476C424.37422,376.47433,423.46076,375.61468,422.33396,375.61468C421.20715,375.61468,420.2937,376.47433,
				420.2937,377.53476C420.2937,378.59519,421.20715,379.45483,422.33396,379.45483C423.46076,379.45483,424.37422,378.59519,424.37422,377.53476
				z"/>
			<path clip-path="url(#SVG_CP_1)" fill="#029400" fill-rule="evenodd" stroke="#000000" stroke-width="0.96012" stroke-miterlimit="10" stroke-linecap="round" stroke-linejoin="round" d="
				M440.45627,377.53476C440.45627,376.47433,439.59655,375.61468,438.53603,375.61468C437.47551,375.61468,436.61578,376.47433
				,436.61578,377.53476C436.61578,378.59519,437.47551,379.45483,438.53603,379.45483C439.59655,379.45483,440.45627,378.59519
				,440.45627,377.53476z"/>
			<path clip-path="url(#SVG_CP_1)" fill="#029400" fill-rule="evenodd" stroke="#000000" stroke-width="0.96012" stroke-miterlimit="10" stroke-linecap="round" stroke-linejoin="round" d="
				M293.79754,361.21412C293.79754,360.15369,292.88408,359.29404,291.75728,359.29404C290.63047,359.29404,289.71702,360.15369
				,289.71702,361.21412C289.71702,362.27455,290.63047,363.13419,291.75728,363.13419C292.88408,363.13419,293.79754,362.27455
				,293.79754,361.21412z"/>
			<path clip-path="url(#SVG_CP_1)" fill="#029400" fill-rule="evenodd" stroke="#000000" stroke-width="0.96012" stroke-miterlimit="10" stroke-linecap="round" stroke-linejoin="round" d="
				M309.87959,361.21412C309.87959,360.15369,309.01987,359.29404,307.95935,359.29404C306.89882,359.29404,306.0391,360.15369,
				306.0391,361.21412C306.0391,362.27455,306.89882,363.13419,307.95935,363.13419C309.01987,363.13419,309.87959,362.27455,309.87959,361.21412
				z"/>
			<path clip-path="url(#SVG_CP_1)" fill="#029400" fill-rule="evenodd" stroke="#000000" stroke-width="0.96012" stroke-miterlimit="10" stroke-linecap="round" stroke-linejoin="round" d="
				M326.20168,361.21412C326.20168,360.15369,325.34195,359.29404,324.28143,359.29404C323.22091,359.29404,322.36119,360.15369
				,322.36119,361.21412C322.36119,362.27455,323.22091,363.13419,324.28143,363.13419C325.34195,363.13419,326.20168,362.27455
				,326.20168,361.21412z"/>
			<path clip-path="url(#SVG_CP_1)" fill="#029400" fill-rule="evenodd" stroke="#000000" stroke-width="0.96012" stroke-miterlimit="10" stroke-linecap="round" stroke-linejoin="round" d="
				M342.76379,361.21412C342.76379,360.15369,341.85034,359.29404,340.72353,359.29404C339.59673,359.29404,338.68327,360.15369
				,338.68327,361.21412C338.68327,362.27455,339.59673,363.13419,340.72353,363.13419C341.85034,363.13419,342.76379,362.27455
				,342.76379,361.21412z"/>
			<path clip-path="url(#SVG_CP_1)" fill="#029400" fill-rule="evenodd" stroke="#000000" stroke-width="0.96012" stroke-miterlimit="10" stroke-linecap="round" stroke-linejoin="round" d="
				M359.08588,361.21412C359.08588,360.15369,358.17242,359.29404,357.04562,359.29404C355.91881,359.29404,355.00536,360.15369
				,355.00536,361.21412C355.00536,362.27455,355.91881,363.13419,357.04562,363.13419C358.17242,363.13419,359.08588,362.27455
				,359.08588,361.21412z"/>
			<path clip-path="url(#SVG_CP_1)" fill="#029400" fill-rule="evenodd" stroke="#000000" stroke-width="0.96012" stroke-miterlimit="10" stroke-linecap="round" stroke-linejoin="round" d="
				M375.16793,361.21412C375.16793,360.15369,374.30821,359.29404,373.24769,359.29404C372.18717,359.29404,371.32744,360.15369
				,371.32744,361.21412C371.32744,362.27455,372.18717,363.13419,373.24769,363.13419C374.30821,363.13419,375.16793,362.27455
				,375.16793,361.21412z"/>
			<path clip-path="url(#SVG_CP_1)" fill="#029400" fill-rule="evenodd" stroke="#000000" stroke-width="0.96012" stroke-miterlimit="10" stroke-linecap="round" stroke-linejoin="round" d="
				M391.49002,361.21412C391.49002,360.15369,390.6303,359.29404,389.56977,359.29404C388.50925,359.29404,387.64953,360.15369,
				387.64953,361.21412C387.64953,362.27455,388.50925,363.13419,389.56977,363.13419C390.6303,363.13419,391.49002,362.27455,391.49002,361.21412
				z"/>
			<path clip-path="url(#SVG_CP_1)" fill="#029400" fill-rule="evenodd" stroke="#000000" stroke-width="0.96012" stroke-miterlimit="10" stroke-linecap="round" stroke-linejoin="round" d="
				M408.05213,361.21412C408.05213,360.15369,407.13868,359.29404,406.01187,359.29404C404.88507,359.29404,403.97161,360.15369
				,403.97161,361.21412C403.97161,362.27455,404.88507,363.13419,406.01187,363.13419C407.13868,363.13419,408.05213,362.27455
				,408.05213,361.21412z"/>
			<path clip-path="url(#SVG_CP_1)" fill="#029400" fill-rule="evenodd" stroke="#000000" stroke-width="0.96012" stroke-miterlimit="10" stroke-linecap="round" stroke-linejoin="round" d="
				M424.37422,361.21412C424.37422,360.15369,423.46076,359.29404,422.33396,359.29404C421.20715,359.29404,420.2937,360.15369,
				420.2937,361.21412C420.2937,362.27455,421.20715,363.13419,422.33396,363.13419C423.46076,363.13419,424.37422,362.27455,424.37422,361.21412
				z"/>
			<path clip-path="url(#SVG_CP_1)" fill="#029400" fill-rule="evenodd" stroke="#000000" stroke-width="0.96012" stroke-miterlimit="10" stroke-linecap="round" stroke-linejoin="round" d="
				M440.45627,361.21412C440.45627,360.15369,439.59655,359.29404,438.53603,359.29404C437.47551,359.29404,436.61578,360.15369
				,436.61578,361.21412C436.61578,362.27455,437.47551,363.13419,438.53603,363.13419C439.59655,363.13419,440.45627,362.27455
				,440.45627,361.21412z"/>
			<path clip-path="url(#SVG_CP_1)" fill="#029400" fill-rule="evenodd" stroke="#000000" stroke-width="0.96012" stroke-miterlimit="10" stroke-linecap="round" stroke-linejoin="round" d="
				M293.79754,345.01349C293.79754,343.88678,292.88408,342.97341,291.75728,342.97341C290.63047,342.97341,289.71702,343.88678
				,289.71702,345.01349C289.71702,346.14019,290.63047,347.05357,291.75728,347.05357C292.88408,347.05357,293.79754,346.14019
				,293.79754,345.01349z"/>
			<path clip-path="url(#SVG_CP_1)" fill="#029400" fill-rule="evenodd" stroke="#000000" stroke-width="0.96012" stroke-miterlimit="10" stroke-linecap="round" stroke-linejoin="round" d="
				M309.87959,345.01349C309.87959,343.88678,309.01987,342.97341,307.95935,342.97341C306.89882,342.97341,306.0391,343.88678,
				306.0391,345.01349C306.0391,346.14019,306.89882,347.05357,307.95935,347.05357C309.01987,347.05357,309.87959,346.14019,309.87959,345.01349
				z"/>
			<path clip-path="url(#SVG_CP_1)" fill="#029400" fill-rule="evenodd" stroke="#000000" stroke-width="0.96012" stroke-miterlimit="10" stroke-linecap="round" stroke-linejoin="round" d="
				M326.20168,345.01349C326.20168,343.88678,325.34195,342.97341,324.28143,342.97341C323.22091,342.97341,322.36119,343.88678
				,322.36119,345.01349C322.36119,346.14019,323.22091,347.05357,324.28143,347.05357C325.34195,347.05357,326.20168,346.14019
				,326.20168,345.01349z"/>
			<path clip-path="url(#SVG_CP_1)" fill="#029400" fill-rule="evenodd" stroke="#000000" stroke-width="0.96012" stroke-miterlimit="10" stroke-linecap="round" stroke-linejoin="round" d="
				M342.76379,345.01349C342.76379,343.88678,341.85034,342.97341,340.72353,342.97341C339.59673,342.97341,338.68327,343.88678
				,338.68327,345.01349C338.68327,346.14019,339.59673,347.05357,340.72353,347.05357C341.85034,347.05357,342.76379,346.14019
				,342.76379,345.01349z"/>
			<path clip-path="url(#SVG_CP_1)" fill="#029400" fill-rule="evenodd" stroke="#000000" stroke-width="0.96012" stroke-miterlimit="10" stroke-linecap="round" stroke-linejoin="round" d="
				M359.08588,345.01349C359.08588,343.88678,358.17242,342.97341,357.04562,342.97341C355.91881,342.97341,355.00536,343.88678
				,355.00536,345.01349C355.00536,346.14019,355.91881,347.05357,357.04562,347.05357C358.17242,347.05357,359.08588,346.14019
				,359.08588,345.01349z"/>
			<path clip-path="url(#SVG_CP_1)" fill="#029400" fill-rule="evenodd" stroke="#000000" stroke-width="0.96012" stroke-miterlimit="10" stroke-linecap="round" stroke-linejoin="round" d="
				M375.16793,345.01349C375.16793,343.88678,374.30821,342.97341,373.24769,342.97341C372.18717,342.97341,371.32744,343.88678
				,371.32744,345.01349C371.32744,346.14019,372.18717,347.05357,373.24769,347.05357C374.30821,347.05357,375.16793,346.14019
				,375.16793,345.01349z"/>
			<path clip-path="url(#SVG_CP_1)" fill="#029400" fill-rule="evenodd" stroke="#000000" stroke-width="0.96012" stroke-miterlimit="10" stroke-linecap="round" stroke-linejoin="round" d="
				M391.49002,345.01349C391.49002,343.88678,390.6303,342.97341,389.56977,342.97341C388.50925,342.97341,387.64953,343.88678,
				387.64953,345.01349C387.64953,346.14019,388.50925,347.05357,389.56977,347.05357C390.6303,347.05357,391.49002,346.14019,391.49002,345.01349
				z"/>
			<path clip-path="url(#SVG_CP_1)" fill="#029400" fill-rule="evenodd" stroke="#000000" stroke-width="0.96012" stroke-miterlimit="10" stroke-linecap="round" stroke-linejoin="round" d="
				M408.05213,345.01349C408.05213,343.88678,407.13868,342.97341,406.01187,342.97341C404.88507,342.97341,403.97161,343.88678
				,403.97161,345.01349C403.97161,346.14019,404.88507,347.05357,406.01187,347.05357C407.13868,347.05357,408.05213,346.14019
				,408.05213,345.01349z"/>
			<path clip-path="url(#SVG_CP_1)" fill="#029400" fill-rule="evenodd" stroke="#000000" stroke-width="0.96012" stroke-miterlimit="10" stroke-linecap="round" stroke-linejoin="round" d="
				M424.37422,345.01349C424.37422,343.88678,423.46076,342.97341,422.33396,342.97341C421.20715,342.97341,420.2937,343.88678,
				420.2937,345.01349C420.2937,346.14019,421.20715,347.05357,422.33396,347.05357C423.46076,347.05357,424.37422,346.14019,424.37422,345.01349
				z"/>
			<path clip-path="url(#SVG_CP_1)" fill="#029400" fill-rule="evenodd" stroke="#000000" stroke-width="0.96012" stroke-miterlimit="10" stroke-linecap="round" stroke-linejoin="round" d="
				M440.45627,345.01349C440.45627,343.88678,439.59655,342.97341,438.53603,342.97341C437.47551,342.97341,436.61578,343.88678
				,436.61578,345.01349C436.61578,346.14019,437.47551,347.05357,438.53603,347.05357C439.59655,347.05357,440.45627,346.14019
				,440.45627,345.01349z"/>
			<path clip-path="url(#SVG_CP_1)" fill="#029400" fill-rule="evenodd" stroke="#000000" stroke-width="0.96012" stroke-miterlimit="10" stroke-linecap="round" stroke-linejoin="round" d="
				M293.79754,328.69285C293.79754,327.56614,292.88408,326.65277,291.75728,326.65277C290.63047,326.65277,289.71702,327.56614
				,289.71702,328.69285C289.71702,329.81955,290.63047,330.73293,291.75728,330.73293C292.88408,330.73293,293.79754,329.81955
				,293.79754,328.69285z"/>
			<path clip-path="url(#SVG_CP_1)" fill="#029400" fill-rule="evenodd" stroke="#000000" stroke-width="0.96012" stroke-miterlimit="10" stroke-linecap="round" stroke-linejoin="round" d="
				M309.87959,328.69285C309.87959,327.56614,309.01987,326.65277,307.95935,326.65277C306.89882,326.65277,306.0391,327.56614,
				306.0391,328.69285C306.0391,329.81955,306.89882,330.73293,307.95935,330.73293C309.01987,330.73293,309.87959,329.81955,309.87959,328.69285
				z"/>
			<path clip-path="url(#SVG_CP_1)" fill="#029400" fill-rule="evenodd" stroke="#000000" stroke-width="0.96012" stroke-miterlimit="10" stroke-linecap="round" stroke-linejoin="round" d="
				M326.20168,328.69285C326.20168,327.56614,325.34195,326.65277,324.28143,326.65277C323.22091,326.65277,322.36119,327.56614
				,322.36119,328.69285C322.36119,329.81955,323.22091,330.73293,324.28143,330.73293C325.34195,330.73293,326.20168,329.81955
				,326.20168,328.69285z"/>
			<path clip-path="url(#SVG_CP_1)" fill="#029400" fill-rule="evenodd" stroke="#000000" stroke-width="0.96012" stroke-miterlimit="10" stroke-linecap="round" stroke-linejoin="round" d="
				M342.76379,328.69285C342.76379,327.56614,341.85034,326.65277,340.72353,326.65277C339.59673,326.65277,338.68327,327.56614
				,338.68327,328.69285C338.68327,329.81955,339.59673,330.73293,340.72353,330.73293C341.85034,330.73293,342.76379,329.81955
				,342.76379,328.69285z"/>
			<path clip-path="url(#SVG_CP_1)" fill="#029400" fill-rule="evenodd" stroke="#000000" stroke-width="0.96012" stroke-miterlimit="10" stroke-linecap="round" stroke-linejoin="round" d="
				M359.08588,328.69285C359.08588,327.56614,358.17242,326.65277,357.04562,326.65277C355.91881,326.65277,355.00536,327.56614
				,355.00536,328.69285C355.00536,329.81955,355.91881,330.73293,357.04562,330.73293C358.17242,330.73293,359.08588,329.81955
				,359.08588,328.69285z"/>
			<path clip-path="url(#SVG_CP_1)" fill="#029400" fill-rule="evenodd" stroke="#000000" stroke-width="0.96012" stroke-miterlimit="10" stroke-linecap="round" stroke-linejoin="round" d="
				M375.16793,328.69285C375.16793,327.56614,374.30821,326.65277,373.24769,326.65277C372.18717,326.65277,371.32744,327.56614
				,371.32744,328.69285C371.32744,329.81955,372.18717,330.73293,373.24769,330.73293C374.30821,330.73293,375.16793,329.81955
				,375.16793,328.69285z"/>
			<path clip-path="url(#SVG_CP_1)" fill="#029400" fill-rule="evenodd" stroke="#000000" stroke-width="0.96012" stroke-miterlimit="10" stroke-linecap="round" stroke-linejoin="round" d="
				M391.49002,328.69285C391.49002,327.56614,390.6303,326.65277,389.56977,326.65277C388.50925,326.65277,387.64953,327.56614,
				387.64953,328.69285C387.64953,329.81955,388.50925,330.73293,389.56977,330.73293C390.6303,330.73293,391.49002,329.81955,391.49002,328.69285
				z"/>
			<path clip-path="url(#SVG_CP_1)" fill="#029400" fill-rule="evenodd" stroke="#000000" stroke-width="0.96012" stroke-miterlimit="10" stroke-linecap="round" stroke-linejoin="round" d="
				M408.05213,328.69285C408.05213,327.56614,407.13868,326.65277,406.01187,326.65277C404.88507,326.65277,403.97161,327.56614
				,403.97161,328.69285C403.97161,329.81955,404.88507,330.73293,406.01187,330.73293C407.13868,330.73293,408.05213,329.81955
				,408.05213,328.69285z"/>
			<path clip-path="url(#SVG_CP_1)" fill="#029400" fill-rule="evenodd" stroke="#000000" stroke-width="0.96012" stroke-miterlimit="10" stroke-linecap="round" stroke-linejoin="round" d="
				M424.37422,328.69285C424.37422,327.56614,423.46076,326.65277,422.33396,326.65277C421.20715,326.65277,420.2937,327.56614,
				420.2937,328.69285C420.2937,329.81955,421.20715,330.73293,422.33396,330.73293C423.46076,330.73293,424.37422,329.81955,424.37422,328.69285
				z"/>
			<path clip-path="url(#SVG_CP_1)" fill="#029400" fill-rule="evenodd" stroke="#000000" stroke-width="0.96012" stroke-miterlimit="10" stroke-linecap="round" stroke-linejoin="round" d="
				M440.45627,328.69285C440.45627,327.56614,439.59655,326.65277,438.53603,326.65277C437.47551,326.65277,436.61578,327.56614
				,436.61578,328.69285C436.61578,329.81955,437.47551,330.73293,438.53603,330.73293C439.59655,330.73293,440.45627,329.81955
				,440.45627,328.69285z"/>
			<path clip-path="url(#SVG_CP_1)" fill="#029400" fill-rule="evenodd" stroke="#000000" stroke-width="0.96012" stroke-miterlimit="10" stroke-linecap="round" stroke-linejoin="round" d="
				M293.79754,312.37221C293.79754,311.24551,292.88408,310.33213,291.75728,310.33213C290.63047,310.33213,289.71702,311.24551
				,289.71702,312.37221C289.71702,313.49892,290.63047,314.41229,291.75728,314.41229C292.88408,314.41229,293.79754,313.49892
				,293.79754,312.37221z"/>
			<path clip-path="url(#SVG_CP_1)" fill="#029400" fill-rule="evenodd" stroke="#000000" stroke-width="0.96012" stroke-miterlimit="10" stroke-linecap="round" stroke-linejoin="round" d="
				M309.87959,312.37221C309.87959,311.24551,309.01987,310.33213,307.95935,310.33213C306.89882,310.33213,306.0391,311.24551,
				306.0391,312.37221C306.0391,313.49892,306.89882,314.41229,307.95935,314.41229C309.01987,314.41229,309.87959,313.49892,309.87959,312.37221
				z"/>
			<path clip-path="url(#SVG_CP_1)" fill="#029400" fill-rule="evenodd" stroke="#000000" stroke-width="0.96012" stroke-miterlimit="10" stroke-linecap="round" stroke-linejoin="round" d="
				M326.20168,312.37221C326.20168,311.24551,325.34195,310.33213,324.28143,310.33213C323.22091,310.33213,322.36119,311.24551
				,322.36119,312.37221C322.36119,313.49892,323.22091,314.41229,324.28143,314.41229C325.34195,314.41229,326.20168,313.49892
				,326.20168,312.37221z"/>
			<path clip-path="url(#SVG_CP_1)" fill="#029400" fill-rule="evenodd" stroke="#000000" stroke-width="0.96012" stroke-miterlimit="10" stroke-linecap="round" stroke-linejoin="round" d="
				M342.76379,312.37221C342.76379,311.24551,341.85034,310.33213,340.72353,310.33213C339.59673,310.33213,338.68327,311.24551
				,338.68327,312.37221C338.68327,313.49892,339.59673,314.41229,340.72353,314.41229C341.85034,314.41229,342.76379,313.49892
				,342.76379,312.37221z"/>
			<path clip-path="url(#SVG_CP_1)" fill="#029400" fill-rule="evenodd" stroke="#000000" stroke-width="0.96012" stroke-miterlimit="10" stroke-linecap="round" stroke-linejoin="round" d="
				M359.08588,312.37221C359.08588,311.24551,358.17242,310.33213,357.04562,310.33213C355.91881,310.33213,355.00536,311.24551
				,355.00536,312.37221C355.00536,313.49892,355.91881,314.41229,357.04562,314.41229C358.17242,314.41229,359.08588,313.49892
				,359.08588,312.37221z"/>
			<path clip-path="url(#SVG_CP_1)" fill="#029400" fill-rule="evenodd" stroke="#000000" stroke-width="0.96012" stroke-miterlimit="10" stroke-linecap="round" stroke-linejoin="round" d="
				M375.16793,312.37221C375.16793,311.24551,374.30821,310.33213,373.24769,310.33213C372.18717,310.33213,371.32744,311.24551
				,371.32744,312.37221C371.32744,313.49892,372.18717,314.41229,373.24769,314.41229C374.30821,314.41229,375.16793,313.49892
				,375.16793,312.37221z"/>
			<path clip-path="url(#SVG_CP_1)" fill="#029400" fill-rule="evenodd" stroke="#000000" stroke-width="0.96012" stroke-miterlimit="10" stroke-linecap="round" stroke-linejoin="round" d="
				M391.49002,312.37221C391.49002,311.24551,390.6303,310.33213,389.56977,310.33213C388.50925,310.33213,387.64953,311.24551,
				387.64953,312.37221C387.64953,313.49892,388.50925,314.41229,389.56977,314.41229C390.6303,314.41229,391.49002,313.49892,391.49002,312.37221
				z"/>
			<path clip-path="url(#SVG_CP_1)" fill="#029400" fill-rule="evenodd" stroke="#000000" stroke-width="0.96012" stroke-miterlimit="10" stroke-linecap="round" stroke-linejoin="round" d="
				M408.05213,312.37221C408.05213,311.24551,407.13868,310.33213,406.01187,310.33213C404.88507,310.33213,403.97161,311.24551
				,403.97161,312.37221C403.97161,313.49892,404.88507,314.41229,406.01187,314.41229C407.13868,314.41229,408.05213,313.49892
				,408.05213,312.37221z"/>
			<path clip-path="url(#SVG_CP_1)" fill="#029400" fill-rule="evenodd" stroke="#000000" stroke-width="0.96012" stroke-miterlimit="10" stroke-linecap="round" stroke-linejoin="round" d="
				M424.37422,312.37221C424.37422,311.24551,423.46076,310.33213,422.33396,310.33213C421.20715,310.33213,420.2937,311.24551,
				420.2937,312.37221C420.2937,313.49892,421.20715,314.41229,422.33396,314.41229C423.46076,314.41229,424.37422,313.49892,424.37422,312.37221
				z"/>
			<path clip-path="url(#SVG_CP_1)" fill="#029400" fill-rule="evenodd" stroke="#000000" stroke-width="0.96012" stroke-miterlimit="10" stroke-linecap="round" stroke-linejoin="round" d="
				M440.45627,312.37221C440.45627,311.24551,439.59655,310.33213,438.53603,310.33213C437.47551,310.33213,436.61578,311.24551
				,436.61578,312.37221C436.61578,313.49892,437.47551,314.41229,438.53603,314.41229C439.59655,314.41229,440.45627,313.49892
				,440.45627,312.37221z"/>
			<path clip-path="url(#SVG_CP_1)" fill="#029400" fill-rule="evenodd" stroke="#000000" stroke-width="0.96012" stroke-miterlimit="10" stroke-linecap="round" stroke-linejoin="round" d="
				M293.79754,295.93157C293.79754,294.87114,292.88408,294.01149,291.75728,294.01149C290.63047,294.01149,289.71702,294.87114
				,289.71702,295.93157C289.71702,296.992,290.63047,297.85164,291.75728,297.85164C292.88408,297.85164,293.79754,296.992,293.79754,295.93157
				z"/>
			<path clip-path="url(#SVG_CP_1)" fill="#029400" fill-rule="evenodd" stroke="#000000" stroke-width="0.96012" stroke-miterlimit="10" stroke-linecap="round" stroke-linejoin="round" d="
				M309.87959,295.93157C309.87959,294.87114,309.01987,294.01149,307.95935,294.01149C306.89882,294.01149,306.0391,294.87114,
				306.0391,295.93157C306.0391,296.992,306.89882,297.85164,307.95935,297.85164C309.01987,297.85164,309.87959,296.992,309.87959,295.93157
				z"/>
			<path clip-path="url(#SVG_CP_1)" fill="#029400" fill-rule="evenodd" stroke="#000000" stroke-width="0.96012" stroke-miterlimit="10" stroke-linecap="round" stroke-linejoin="round" d="
				M326.20168,295.93157C326.20168,294.87114,325.34195,294.01149,324.28143,294.01149C323.22091,294.01149,322.36119,294.87114
				,322.36119,295.93157C322.36119,296.992,323.22091,297.85164,324.28143,297.85164C325.34195,297.85164,326.20168,296.992,326.20168,295.93157
				z"/>
			<path clip-path="url(#SVG_CP_1)" fill="#029400" fill-rule="evenodd" stroke="#000000" stroke-width="0.96012" stroke-miterlimit="10" stroke-linecap="round" stroke-linejoin="round" d="
				M342.76379,295.93157C342.76379,294.87114,341.85034,294.01149,340.72353,294.01149C339.59673,294.01149,338.68327,294.87114
				,338.68327,295.93157C338.68327,296.992,339.59673,297.85164,340.72353,297.85164C341.85034,297.85164,342.76379,296.992,342.76379,295.93157
				z"/>
			<path clip-path="url(#SVG_CP_1)" fill="#029400" fill-rule="evenodd" stroke="#000000" stroke-width="0.96012" stroke-miterlimit="10" stroke-linecap="round" stroke-linejoin="round" d="
				M359.08588,295.93157C359.08588,294.87114,358.17242,294.01149,357.04562,294.01149C355.91881,294.01149,355.00536,294.87114
				,355.00536,295.93157C355.00536,296.992,355.91881,297.85164,357.04562,297.85164C358.17242,297.85164,359.08588,296.992,359.08588,295.93157
				z"/>
			<path clip-path="url(#SVG_CP_1)" fill="#029400" fill-rule="evenodd" stroke="#000000" stroke-width="0.96012" stroke-miterlimit="10" stroke-linecap="round" stroke-linejoin="round" d="
				M375.16793,295.93157C375.16793,294.87114,374.30821,294.01149,373.24769,294.01149C372.18717,294.01149,371.32744,294.87114
				,371.32744,295.93157C371.32744,296.992,372.18717,297.85164,373.24769,297.85164C374.30821,297.85164,375.16793,296.992,375.16793,295.93157
				z"/>
			<path clip-path="url(#SVG_CP_1)" fill="#029400" fill-rule="evenodd" stroke="#000000" stroke-width="0.96012" stroke-miterlimit="10" stroke-linecap="round" stroke-linejoin="round" d="
				M391.49002,295.93157C391.49002,294.87114,390.6303,294.01149,389.56977,294.01149C388.50925,294.01149,387.64953,294.87114,
				387.64953,295.93157C387.64953,296.992,388.50925,297.85164,389.56977,297.85164C390.6303,297.85164,391.49002,296.992,391.49002,295.93157
				z"/>
			<path clip-path="url(#SVG_CP_1)" fill="#029400" fill-rule="evenodd" stroke="#000000" stroke-width="0.96012" stroke-miterlimit="10" stroke-linecap="round" stroke-linejoin="round" d="
				M408.05213,295.93157C408.05213,294.87114,407.13868,294.01149,406.01187,294.01149C404.88507,294.01149,403.97161,294.87114
				,403.97161,295.93157C403.97161,296.992,404.88507,297.85164,406.01187,297.85164C407.13868,297.85164,408.05213,296.992,408.05213,295.93157
				z"/>
			<path clip-path="url(#SVG_CP_1)" fill="#029400" fill-rule="evenodd" stroke="#000000" stroke-width="0.96012" stroke-miterlimit="10" stroke-linecap="round" stroke-linejoin="round" d="
				M424.37422,295.93157C424.37422,294.87114,423.46076,294.01149,422.33396,294.01149C421.20715,294.01149,420.2937,294.87114,
				420.2937,295.93157C420.2937,296.992,421.20715,297.85164,422.33396,297.85164C423.46076,297.85164,424.37422,296.992,424.37422,295.93157
				z"/>
			<path clip-path="url(#SVG_CP_1)" fill="#029400" fill-rule="evenodd" stroke="#000000" stroke-width="0.96012" stroke-miterlimit="10" stroke-linecap="round" stroke-linejoin="round" d="
				M440.45627,295.93157C440.45627,294.87114,439.59655,294.01149,438.53603,294.01149C437.47551,294.01149,436.61578,294.87114
				,436.61578,295.93157C436.61578,296.992,437.47551,297.85164,438.53603,297.85164C439.59655,297.85164,440.45627,296.992,440.45627,295.93157
				z"/>
			<path clip-path="url(#SVG_CP_1)" fill="#029400" fill-rule="evenodd" stroke="#000000" stroke-width="0.96012" stroke-miterlimit="10" stroke-linecap="round" stroke-linejoin="round" d="
				M456.77836,295.93157C456.77836,294.87114,455.91864,294.01149,454.85811,294.01149C453.79759,294.01149,452.93787,294.87114
				,452.93787,295.93157C452.93787,296.992,453.79759,297.85164,454.85811,297.85164C455.91864,297.85164,456.77836,296.992,456.77836,295.93157
				z"/>
			<path clip-path="url(#SVG_CP_1)" fill="#029400" fill-rule="evenodd" stroke="#000000" stroke-width="0.96012" stroke-miterlimit="10" stroke-linecap="round" stroke-linejoin="round" d="
				M293.79754,279.61093C293.79754,278.5505,292.88408,277.69085,291.75728,277.69085C290.63047,277.69085,289.71702,278.5505,289.71702,279.61093
				C289.71702,280.67136,290.63047,281.531,291.75728,281.531C292.88408,281.531,293.79754,280.67136,293.79754,279.61093z"/>
			<path clip-path="url(#SVG_CP_1)" fill="#029400" fill-rule="evenodd" stroke="#000000" stroke-width="0.96012" stroke-miterlimit="10" stroke-linecap="round" stroke-linejoin="round" d="
				M309.87959,279.61093C309.87959,278.5505,309.01987,277.69085,307.95935,277.69085C306.89882,277.69085,306.0391,278.5505,306.0391,279.61093
				C306.0391,280.67136,306.89882,281.531,307.95935,281.531C309.01987,281.531,309.87959,280.67136,309.87959,279.61093z"/>
			<path clip-path="url(#SVG_CP_1)" fill="#029400" fill-rule="evenodd" stroke="#000000" stroke-width="0.96012" stroke-miterlimit="10" stroke-linecap="round" stroke-linejoin="round" d="
				M326.20168,279.61093C326.20168,278.5505,325.34195,277.69085,324.28143,277.69085C323.22091,277.69085,322.36119,278.5505,322.36119,279.61093
				C322.36119,280.67136,323.22091,281.531,324.28143,281.531C325.34195,281.531,326.20168,280.67136,326.20168,279.61093z"/>
			<path clip-path="url(#SVG_CP_1)" fill="#029400" fill-rule="evenodd" stroke="#000000" stroke-width="0.96012" stroke-miterlimit="10" stroke-linecap="round" stroke-linejoin="round" d="
				M342.76379,279.61093C342.76379,278.5505,341.85034,277.69085,340.72353,277.69085C339.59673,277.69085,338.68327,278.5505,338.68327,279.61093
				C338.68327,280.67136,339.59673,281.531,340.72353,281.531C341.85034,281.531,342.76379,280.67136,342.76379,279.61093z"/>
			<path clip-path="url(#SVG_CP_1)" fill="#029400" fill-rule="evenodd" stroke="#000000" stroke-width="0.96012" stroke-miterlimit="10" stroke-linecap="round" stroke-linejoin="round" d="
				M359.08588,279.61093C359.08588,278.5505,358.17242,277.69085,357.04562,277.69085C355.91881,277.69085,355.00536,278.5505,355.00536,279.61093
				C355.00536,280.67136,355.91881,281.531,357.04562,281.531C358.17242,281.531,359.08588,280.67136,359.08588,279.61093z"/>
			<path clip-path="url(#SVG_CP_1)" fill="#029400" fill-rule="evenodd" stroke="#000000" stroke-width="0.96012" stroke-miterlimit="10" stroke-linecap="round" stroke-linejoin="round" d="
				M375.16793,279.61093C375.16793,278.5505,374.30821,277.69085,373.24769,277.69085C372.18717,277.69085,371.32744,278.5505,371.32744,279.61093
				C371.32744,280.67136,372.18717,281.531,373.24769,281.531C374.30821,281.531,375.16793,280.67136,375.16793,279.61093z"/>
			<path clip-path="url(#SVG_CP_1)" fill="#029400" fill-rule="evenodd" stroke="#000000" stroke-width="0.96012" stroke-miterlimit="10" stroke-linecap="round" stroke-linejoin="round" d="
				M391.49002,279.61093C391.49002,278.5505,390.6303,277.69085,389.56977,277.69085C388.50925,277.69085,387.64953,278.5505,387.64953,279.61093
				C387.64953,280.67136,388.50925,281.531,389.56977,281.531C390.6303,281.531,391.49002,280.67136,391.49002,279.61093z"/>
			<path clip-path="url(#SVG_CP_1)" fill="#029400" fill-rule="evenodd" stroke="#000000" stroke-width="0.96012" stroke-miterlimit="10" stroke-linecap="round" stroke-linejoin="round" d="
				M408.05213,279.61093C408.05213,278.5505,407.13868,277.69085,406.01187,277.69085C404.88507,277.69085,403.97161,278.5505,403.97161,279.61093
				C403.97161,280.67136,404.88507,281.531,406.01187,281.531C407.13868,281.531,408.05213,280.67136,408.05213,279.61093z"/>
			<path clip-path="url(#SVG_CP_1)" fill="#029400" fill-rule="evenodd" stroke="#000000" stroke-width="0.96012" stroke-miterlimit="10" stroke-linecap="round" stroke-linejoin="round" d="
				M424.37422,279.61093C424.37422,278.5505,423.46076,277.69085,422.33396,277.69085C421.20715,277.69085,420.2937,278.5505,420.2937,279.61093
				C420.2937,280.67136,421.20715,281.531,422.33396,281.531C423.46076,281.531,424.37422,280.67136,424.37422,279.61093z"/>
			<path clip-path="url(#SVG_CP_1)" fill="#029400" fill-rule="evenodd" stroke="#000000" stroke-width="0.96012" stroke-miterlimit="10" stroke-linecap="round" stroke-linejoin="round" d="
				M440.45627,279.61093C440.45627,278.5505,439.59655,277.69085,438.53603,277.69085C437.47551,277.69085,436.61578,278.5505,436.61578,279.61093
				C436.61578,280.67136,437.47551,281.531,438.53603,281.531C439.59655,281.531,440.45627,280.67136,440.45627,279.61093z"/>
			<path clip-path="url(#SVG_CP_1)" fill="#029400" fill-rule="evenodd" stroke="#000000" stroke-width="0.96012" stroke-miterlimit="10" stroke-linecap="round" stroke-linejoin="round" d="
				M277.47545,263.29029C277.47545,262.22986,276.562,261.37022,275.43519,261.37022C274.30839,261.37022,273.39493,262.22986,273.39493,263.29029
				C273.39493,264.35072,274.30839,265.21037,275.43519,265.21037C276.562,265.21037,277.47545,264.35072,277.47545,263.29029z"/>
			<path clip-path="url(#SVG_CP_1)" fill="#029400" fill-rule="evenodd" stroke="#000000" stroke-width="0.96012" stroke-miterlimit="10" stroke-linecap="round" stroke-linejoin="round" d="
				M293.79754,263.29029C293.79754,262.22986,292.88408,261.37022,291.75728,261.37022C290.63047,261.37022,289.71702,262.22986
				,289.71702,263.29029C289.71702,264.35072,290.63047,265.21037,291.75728,265.21037C292.88408,265.21037,293.79754,264.35072
				,293.79754,263.29029z"/>
			<path clip-path="url(#SVG_CP_1)" fill="#029400" fill-rule="evenodd" stroke="#000000" stroke-width="0.96012" stroke-miterlimit="10" stroke-linecap="round" stroke-linejoin="round" d="
				M309.87959,263.29029C309.87959,262.22986,309.01987,261.37022,307.95935,261.37022C306.89882,261.37022,306.0391,262.22986,
				306.0391,263.29029C306.0391,264.35072,306.89882,265.21037,307.95935,265.21037C309.01987,265.21037,309.87959,264.35072,309.87959,263.29029
				z"/>
			<path clip-path="url(#SVG_CP_1)" fill="#029400" fill-rule="evenodd" stroke="#000000" stroke-width="0.96012" stroke-miterlimit="10" stroke-linecap="round" stroke-linejoin="round" d="
				M326.20168,263.29029C326.20168,262.22986,325.34195,261.37022,324.28143,261.37022C323.22091,261.37022,322.36119,262.22986
				,322.36119,263.29029C322.36119,264.35072,323.22091,265.21037,324.28143,265.21037C325.34195,265.21037,326.20168,264.35072
				,326.20168,263.29029z"/>
			<path clip-path="url(#SVG_CP_1)" fill="#029400" fill-rule="evenodd" stroke="#000000" stroke-width="0.96012" stroke-miterlimit="10" stroke-linecap="round" stroke-linejoin="round" d="
				M342.76379,263.29029C342.76379,262.22986,341.85034,261.37022,340.72353,261.37022C339.59673,261.37022,338.68327,262.22986
				,338.68327,263.29029C338.68327,264.35072,339.59673,265.21037,340.72353,265.21037C341.85034,265.21037,342.76379,264.35072
				,342.76379,263.29029z"/>
			<path clip-path="url(#SVG_CP_1)" fill="#029400" fill-rule="evenodd" stroke="#000000" stroke-width="0.96012" stroke-miterlimit="10" stroke-linecap="round" stroke-linejoin="round" d="
				M359.08588,263.29029C359.08588,262.22986,358.17242,261.37022,357.04562,261.37022C355.91881,261.37022,355.00536,262.22986
				,355.00536,263.29029C355.00536,264.35072,355.91881,265.21037,357.04562,265.21037C358.17242,265.21037,359.08588,264.35072
				,359.08588,263.29029z"/>
			<path clip-path="url(#SVG_CP_1)" fill="#029400" fill-rule="evenodd" stroke="#000000" stroke-width="0.96012" stroke-miterlimit="10" stroke-linecap="round" stroke-linejoin="round" d="
				M375.16793,263.29029C375.16793,262.22986,374.30821,261.37022,373.24769,261.37022C372.18717,261.37022,371.32744,262.22986
				,371.32744,263.29029C371.32744,264.35072,372.18717,265.21037,373.24769,265.21037C374.30821,265.21037,375.16793,264.35072
				,375.16793,263.29029z"/>
			<path clip-path="url(#SVG_CP_1)" fill="#029400" fill-rule="evenodd" stroke="#000000" stroke-width="0.96012" stroke-miterlimit="10" stroke-linecap="round" stroke-linejoin="round" d="
				M391.49002,263.29029C391.49002,262.22986,390.6303,261.37022,389.56977,261.37022C388.50925,261.37022,387.64953,262.22986,
				387.64953,263.29029C387.64953,264.35072,388.50925,265.21037,389.56977,265.21037C390.6303,265.21037,391.49002,264.35072,391.49002,263.29029
				z"/>
			<path clip-path="url(#SVG_CP_1)" fill="#029400" fill-rule="evenodd" stroke="#000000" stroke-width="0.96012" stroke-miterlimit="10" stroke-linecap="round" stroke-linejoin="round" d="
				M408.05213,263.29029C408.05213,262.22986,407.13868,261.37022,406.01187,261.37022C404.88507,261.37022,403.97161,262.22986
				,403.97161,263.29029C403.97161,264.35072,404.88507,265.21037,406.01187,265.21037C407.13868,265.21037,408.05213,264.35072
				,408.05213,263.29029z"/>
			<path clip-path="url(#SVG_CP_1)" fill="#029400" fill-rule="evenodd" stroke="#000000" stroke-width="0.96012" stroke-miterlimit="10" stroke-linecap="round" stroke-linejoin="round" d="
				M424.37422,263.29029C424.37422,262.22986,423.46076,261.37022,422.33396,261.37022C421.20715,261.37022,420.2937,262.22986,
				420.2937,263.29029C420.2937,264.35072,421.20715,265.21037,422.33396,265.21037C423.46076,265.21037,424.37422,264.35072,424.37422,263.29029
				z"/>
			<path clip-path="url(#SVG_CP_1)" fill="#029400" fill-rule="evenodd" stroke="#000000" stroke-width="0.96012" stroke-miterlimit="10" stroke-linecap="round" stroke-linejoin="round" d="
				M440.45627,263.29029C440.45627,262.22986,439.59655,261.37022,438.53603,261.37022C437.47551,261.37022,436.61578,262.22986
				,436.61578,263.29029C436.61578,264.35072,437.47551,265.21037,438.53603,265.21037C439.59655,265.21037,440.45627,264.35072
				,440.45627,263.29029z"/>
			<path clip-path="url(#SVG_CP_1)" fill="#029400" fill-rule="evenodd" stroke="#000000" stroke-width="0.96012" stroke-miterlimit="10" stroke-linecap="round" stroke-linejoin="round" d="
				M277.47545,247.08966C277.47545,245.96295,276.562,245.04958,275.43519,245.04958C274.30839,245.04958,273.39493,245.96295,273.39493,247.08966
				C273.39493,248.21636,274.30839,249.12974,275.43519,249.12974C276.562,249.12974,277.47545,248.21636,277.47545,247.08966z"/>
			<path clip-path="url(#SVG_CP_1)" fill="#029400" fill-rule="evenodd" stroke="#000000" stroke-width="0.96012" stroke-miterlimit="10" stroke-linecap="round" stroke-linejoin="round" d="
				M293.79754,247.08966C293.79754,245.96295,292.88408,245.04958,291.75728,245.04958C290.63047,245.04958,289.71702,245.96295
				,289.71702,247.08966C289.71702,248.21636,290.63047,249.12974,291.75728,249.12974C292.88408,249.12974,293.79754,248.21636
				,293.79754,247.08966z"/>
			<path clip-path="url(#SVG_CP_1)" fill="#029400" fill-rule="evenodd" stroke="#000000" stroke-width="0.96012" stroke-miterlimit="10" stroke-linecap="round" stroke-linejoin="round" d="
				M309.87959,247.08966C309.87959,245.96295,309.01987,245.04958,307.95935,245.04958C306.89882,245.04958,306.0391,245.96295,
				306.0391,247.08966C306.0391,248.21636,306.89882,249.12974,307.95935,249.12974C309.01987,249.12974,309.87959,248.21636,309.87959,247.08966
				z"/>
			<path clip-path="url(#SVG_CP_1)" fill="#029400" fill-rule="evenodd" stroke="#000000" stroke-width="0.96012" stroke-miterlimit="10" stroke-linecap="round" stroke-linejoin="round" d="
				M326.20168,247.08966C326.20168,245.96295,325.34195,245.04958,324.28143,245.04958C323.22091,245.04958,322.36119,245.96295
				,322.36119,247.08966C322.36119,248.21636,323.22091,249.12974,324.28143,249.12974C325.34195,249.12974,326.20168,248.21636
				,326.20168,247.08966z"/>
			<path clip-path="url(#SVG_CP_1)" fill="#029400" fill-rule="evenodd" stroke="#000000" stroke-width="0.96012" stroke-miterlimit="10" stroke-linecap="round" stroke-linejoin="round" d="
				M342.76379,247.08966C342.76379,245.96295,341.85034,245.04958,340.72353,245.04958C339.59673,245.04958,338.68327,245.96295
				,338.68327,247.08966C338.68327,248.21636,339.59673,249.12974,340.72353,249.12974C341.85034,249.12974,342.76379,248.21636
				,342.76379,247.08966z"/>
			<path clip-path="url(#SVG_CP_1)" fill="#029400" fill-rule="evenodd" stroke="#000000" stroke-width="0.96012" stroke-miterlimit="10" stroke-linecap="round" stroke-linejoin="round" d="
				M359.08588,247.08966C359.08588,245.96295,358.17242,245.04958,357.04562,245.04958C355.91881,245.04958,355.00536,245.96295
				,355.00536,247.08966C355.00536,248.21636,355.91881,249.12974,357.04562,249.12974C358.17242,249.12974,359.08588,248.21636
				,359.08588,247.08966z"/>
			<path clip-path="url(#SVG_CP_1)" fill="#029400" fill-rule="evenodd" stroke="#000000" stroke-width="0.96012" stroke-miterlimit="10" stroke-linecap="round" stroke-linejoin="round" d="
				M375.16793,247.08966C375.16793,245.96295,374.30821,245.04958,373.24769,245.04958C372.18717,245.04958,371.32744,245.96295
				,371.32744,247.08966C371.32744,248.21636,372.18717,249.12974,373.24769,249.12974C374.30821,249.12974,375.16793,248.21636
				,375.16793,247.08966z"/>
			<path clip-path="url(#SVG_CP_1)" fill="#029400" fill-rule="evenodd" stroke="#000000" stroke-width="0.96012" stroke-miterlimit="10" stroke-linecap="round" stroke-linejoin="round" d="
				M391.49002,247.08966C391.49002,245.96295,390.6303,245.04958,389.56977,245.04958C388.50925,245.04958,387.64953,245.96295,
				387.64953,247.08966C387.64953,248.21636,388.50925,249.12974,389.56977,249.12974C390.6303,249.12974,391.49002,248.21636,391.49002,247.08966
				z"/>
			<path clip-path="url(#SVG_CP_1)" fill="#029400" fill-rule="evenodd" stroke="#000000" stroke-width="0.96012" stroke-miterlimit="10" stroke-linecap="round" stroke-linejoin="round" d="
				M408.05213,247.08966C408.05213,245.96295,407.13868,245.04958,406.01187,245.04958C404.88507,245.04958,403.97161,245.96295
				,403.97161,247.08966C403.97161,248.21636,404.88507,249.12974,406.01187,249.12974C407.13868,249.12974,408.05213,248.21636
				,408.05213,247.08966z"/>
			<path clip-path="url(#SVG_CP_1)" fill="#029400" fill-rule="evenodd" stroke="#000000" stroke-width="0.96012" stroke-miterlimit="10" stroke-linecap="round" stroke-linejoin="round" d="
				M424.37422,247.08966C424.37422,245.96295,423.46076,245.04958,422.33396,245.04958C421.20715,245.04958,420.2937,245.96295,
				420.2937,247.08966C420.2937,248.21636,421.20715,249.12974,422.33396,249.12974C423.46076,249.12974,424.37422,248.21636,424.37422,247.08966
				z"/>
			<path clip-path="url(#SVG_CP_1)" fill="#029400" fill-rule="evenodd" stroke="#000000" stroke-width="0.96012" stroke-miterlimit="10" stroke-linecap="round" stroke-linejoin="round" d="
				M440.45627,247.08966C440.45627,245.96295,439.59655,245.04958,438.53603,245.04958C437.47551,245.04958,436.61578,245.96295
				,436.61578,247.08966C436.61578,248.21636,437.47551,249.12974,438.53603,249.12974C439.59655,249.12974,440.45627,248.21636
				,440.45627,247.08966z"/>
			<path clip-path="url(#SVG_CP_1)" fill="#029400" fill-rule="evenodd" stroke="#000000" stroke-width="0.96012" stroke-miterlimit="10" stroke-linecap="round" stroke-linejoin="round" d="
				M277.47545,231.00903C277.47545,229.88233,276.562,228.96895,275.43519,228.96895C274.30839,228.96895,273.39493,229.88233,273.39493,231.00903
				C273.39493,232.13574,274.30839,233.04911,275.43519,233.04911C276.562,233.04911,277.47545,232.13574,277.47545,231.00903z"/>
			<path clip-path="url(#SVG_CP_1)" fill="#029400" fill-rule="evenodd" stroke="#000000" stroke-width="0.96012" stroke-miterlimit="10" stroke-linecap="round" stroke-linejoin="round" d="
				M293.79754,231.00903C293.79754,229.88233,292.88408,228.96895,291.75728,228.96895C290.63047,228.96895,289.71702,229.88233
				,289.71702,231.00903C289.71702,232.13574,290.63047,233.04911,291.75728,233.04911C292.88408,233.04911,293.79754,232.13574
				,293.79754,231.00903z"/>
			<path clip-path="url(#SVG_CP_1)" fill="#029400" fill-rule="evenodd" stroke="#000000" stroke-width="0.96012" stroke-miterlimit="10" stroke-linecap="round" stroke-linejoin="round" d="
				M309.87959,231.00903C309.87959,229.88233,309.01987,228.96895,307.95935,228.96895C306.89882,228.96895,306.0391,229.88233,
				306.0391,231.00903C306.0391,232.13574,306.89882,233.04911,307.95935,233.04911C309.01987,233.04911,309.87959,232.13574,309.87959,231.00903
				z"/>
			<path clip-path="url(#SVG_CP_1)" fill="#029400" fill-rule="evenodd" stroke="#000000" stroke-width="0.96012" stroke-miterlimit="10" stroke-linecap="round" stroke-linejoin="round" d="
				M326.20168,231.00903C326.20168,229.88233,325.34195,228.96895,324.28143,228.96895C323.22091,228.96895,322.36119,229.88233
				,322.36119,231.00903C322.36119,232.13574,323.22091,233.04911,324.28143,233.04911C325.34195,233.04911,326.20168,232.13574
				,326.20168,231.00903z"/>
			<path clip-path="url(#SVG_CP_1)" fill="#029400" fill-rule="evenodd" stroke="#000000" stroke-width="0.96012" stroke-miterlimit="10" stroke-linecap="round" stroke-linejoin="round" d="
				M342.76379,231.00903C342.76379,229.88233,341.85034,228.96895,340.72353,228.96895C339.59673,228.96895,338.68327,229.88233
				,338.68327,231.00903C338.68327,232.13574,339.59673,233.04911,340.72353,233.04911C341.85034,233.04911,342.76379,232.13574
				,342.76379,231.00903z"/>
			<path clip-path="url(#SVG_CP_1)" fill="#029400" fill-rule="evenodd" stroke="#000000" stroke-width="0.96012" stroke-miterlimit="10" stroke-linecap="round" stroke-linejoin="round" d="
				M359.08588,231.00903C359.08588,229.88233,358.17242,228.96895,357.04562,228.96895C355.91881,228.96895,355.00536,229.88233
				,355.00536,231.00903C355.00536,232.13574,355.91881,233.04911,357.04562,233.04911C358.17242,233.04911,359.08588,232.13574
				,359.08588,231.00903z"/>
			<path clip-path="url(#SVG_CP_1)" fill="#029400" fill-rule="evenodd" stroke="#000000" stroke-width="0.96012" stroke-miterlimit="10" stroke-linecap="round" stroke-linejoin="round" d="
				M375.16793,231.00903C375.16793,229.88233,374.30821,228.96895,373.24769,228.96895C372.18717,228.96895,371.32744,229.88233
				,371.32744,231.00903C371.32744,232.13574,372.18717,233.04911,373.24769,233.04911C374.30821,233.04911,375.16793,232.13574
				,375.16793,231.00903z"/>
			<path clip-path="url(#SVG_CP_1)" fill="#029400" fill-rule="evenodd" stroke="#000000" stroke-width="0.96012" stroke-miterlimit="10" stroke-linecap="round" stroke-linejoin="round" d="
				M391.49002,231.00903C391.49002,229.88233,390.6303,228.96895,389.56977,228.96895C388.50925,228.96895,387.64953,229.88233,
				387.64953,231.00903C387.64953,232.13574,388.50925,233.04911,389.56977,233.04911C390.6303,233.04911,391.49002,232.13574,391.49002,231.00903
				z"/>
			<path clip-path="url(#SVG_CP_1)" fill="#029400" fill-rule="evenodd" stroke="#000000" stroke-width="0.96012" stroke-miterlimit="10" stroke-linecap="round" stroke-linejoin="round" d="
				M408.05213,231.00903C408.05213,229.88233,407.13868,228.96895,406.01187,228.96895C404.88507,228.96895,403.97161,229.88233
				,403.97161,231.00903C403.97161,232.13574,404.88507,233.04911,406.01187,233.04911C407.13868,233.04911,408.05213,232.13574
				,408.05213,231.00903z"/>
			<path clip-path="url(#SVG_CP_1)" fill="#029400" fill-rule="evenodd" stroke="#000000" stroke-width="0.96012" stroke-miterlimit="10" stroke-linecap="round" stroke-linejoin="round" d="
				M424.37422,231.00903C424.37422,229.88233,423.46076,228.96895,422.33396,228.96895C421.20715,228.96895,420.2937,229.88233,
				420.2937,231.00903C420.2937,232.13574,421.20715,233.04911,422.33396,233.04911C423.46076,233.04911,424.37422,232.13574,424.37422,231.00903
				z"/>
			<path clip-path="url(#SVG_CP_1)" fill="#029400" fill-rule="evenodd" stroke="#000000" stroke-width="0.96012" stroke-miterlimit="10" stroke-linecap="round" stroke-linejoin="round" d="
				M440.45627,231.00903C440.45627,229.88233,439.59655,228.96895,438.53603,228.96895C437.47551,228.96895,436.61578,229.88233
				,436.61578,231.00903C436.61578,232.13574,437.47551,233.04911,438.53603,233.04911C439.59655,233.04911,440.45627,232.13574
				,440.45627,231.00903z"/>
			<path clip-path="url(#SVG_CP_1)" fill="#029400" fill-rule="evenodd" stroke="#000000" stroke-width="0.96012" stroke-miterlimit="10" stroke-linecap="round" stroke-linejoin="round" d="
				M260.91334,214.68839C260.91334,213.56169,260.05361,212.64831,258.99309,212.64831C257.93257,212.64831,257.07284,213.56169
				,257.07284,214.68839C257.07284,215.8151,257.93257,216.72847,258.99309,216.72847C260.05361,216.72847,260.91334,215.8151,260.91334,214.68839
				z"/>
			<path clip-path="url(#SVG_CP_1)" fill="#029400" fill-rule="evenodd" stroke="#000000" stroke-width="0.96012" stroke-miterlimit="10" stroke-linecap="round" stroke-linejoin="round" d="
				M277.47545,214.68839C277.47545,213.56169,276.562,212.64831,275.43519,212.64831C274.30839,212.64831,273.39493,213.56169,273.39493,214.68839
				C273.39493,215.8151,274.30839,216.72847,275.43519,216.72847C276.562,216.72847,277.47545,215.8151,277.47545,214.68839z"/>
			<path clip-path="url(#SVG_CP_1)" fill="#029400" fill-rule="evenodd" stroke="#000000" stroke-width="0.96012" stroke-miterlimit="10" stroke-linecap="round" stroke-linejoin="round" d="
				M293.79754,214.68839C293.79754,213.56169,292.88408,212.64831,291.75728,212.64831C290.63047,212.64831,289.71702,213.56169
				,289.71702,214.68839C289.71702,215.8151,290.63047,216.72847,291.75728,216.72847C292.88408,216.72847,293.79754,215.8151,293.79754,214.68839
				z"/>
			<path clip-path="url(#SVG_CP_1)" fill="#029400" fill-rule="evenodd" stroke="#000000" stroke-width="0.96012" stroke-miterlimit="10" stroke-linecap="round" stroke-linejoin="round" d="
				M309.87959,214.68839C309.87959,213.56169,309.01987,212.64831,307.95935,212.64831C306.89882,212.64831,306.0391,213.56169,
				306.0391,214.68839C306.0391,215.8151,306.89882,216.72847,307.95935,216.72847C309.01987,216.72847,309.87959,215.8151,309.87959,214.68839
				z"/>
			<path clip-path="url(#SVG_CP_1)" fill="#029400" fill-rule="evenodd" stroke="#000000" stroke-width="0.96012" stroke-miterlimit="10" stroke-linecap="round" stroke-linejoin="round" d="
				M326.20168,214.68839C326.20168,213.56169,325.34195,212.64831,324.28143,212.64831C323.22091,212.64831,322.36119,213.56169
				,322.36119,214.68839C322.36119,215.8151,323.22091,216.72847,324.28143,216.72847C325.34195,216.72847,326.20168,215.8151,326.20168,214.68839
				z"/>
			<path clip-path="url(#SVG_CP_1)" fill="#029400" fill-rule="evenodd" stroke="#000000" stroke-width="0.96012" stroke-miterlimit="10" stroke-linecap="round" stroke-linejoin="round" d="
				M342.76379,214.68839C342.76379,213.56169,341.85034,212.64831,340.72353,212.64831C339.59673,212.64831,338.68327,213.56169
				,338.68327,214.68839C338.68327,215.8151,339.59673,216.72847,340.72353,216.72847C341.85034,216.72847,342.76379,215.8151,342.76379,214.68839
				z"/>
			<path clip-path="url(#SVG_CP_1)" fill="#029400" fill-rule="evenodd" stroke="#000000" stroke-width="0.96012" stroke-miterlimit="10" stroke-linecap="round" stroke-linejoin="round" d="
				M359.08588,214.68839C359.08588,213.56169,358.17242,212.64831,357.04562,212.64831C355.91881,212.64831,355.00536,213.56169
				,355.00536,214.68839C355.00536,215.8151,355.91881,216.72847,357.04562,216.72847C358.17242,216.72847,359.08588,215.8151,359.08588,214.68839
				z"/>
			<path clip-path="url(#SVG_CP_1)" fill="#029400" fill-rule="evenodd" stroke="#000000" stroke-width="0.96012" stroke-miterlimit="10" stroke-linecap="round" stroke-linejoin="round" d="
				M375.16793,214.68839C375.16793,213.56169,374.30821,212.64831,373.24769,212.64831C372.18717,212.64831,371.32744,213.56169
				,371.32744,214.68839C371.32744,215.8151,372.18717,216.72847,373.24769,216.72847C374.30821,216.72847,375.16793,215.8151,375.16793,214.68839
				z"/>
			<path clip-path="url(#SVG_CP_1)" fill="#029400" fill-rule="evenodd" stroke="#000000" stroke-width="0.96012" stroke-miterlimit="10" stroke-linecap="round" stroke-linejoin="round" d="
				M391.49002,214.68839C391.49002,213.56169,390.6303,212.64831,389.56977,212.64831C388.50925,212.64831,387.64953,213.56169,
				387.64953,214.68839C387.64953,215.8151,388.50925,216.72847,389.56977,216.72847C390.6303,216.72847,391.49002,215.8151,391.49002,214.68839
				z"/>
			<path clip-path="url(#SVG_CP_1)" fill="#029400" fill-rule="evenodd" stroke="#000000" stroke-width="0.96012" stroke-miterlimit="10" stroke-linecap="round" stroke-linejoin="round" d="
				M408.05213,214.68839C408.05213,213.56169,407.13868,212.64831,406.01187,212.64831C404.88507,212.64831,403.97161,213.56169
				,403.97161,214.68839C403.97161,215.8151,404.88507,216.72847,406.01187,216.72847C407.13868,216.72847,408.05213,215.8151,408.05213,214.68839
				z"/>
			<path clip-path="url(#SVG_CP_1)" fill="#029400" fill-rule="evenodd" stroke="#000000" stroke-width="0.96012" stroke-miterlimit="10" stroke-linecap="round" stroke-linejoin="round" d="
				M424.37422,214.68839C424.37422,213.56169,423.46076,212.64831,422.33396,212.64831C421.20715,212.64831,420.2937,213.56169,
				420.2937,214.68839C420.2937,215.8151,421.20715,216.72847,422.33396,216.72847C423.46076,216.72847,424.37422,215.8151,424.37422,214.68839
				z"/>
			<path clip-path="url(#SVG_CP_1)" fill="#029400" fill-rule="evenodd" stroke="#000000" stroke-width="0.96012" stroke-miterlimit="10" stroke-linecap="round" stroke-linejoin="round" d="
				M440.45627,214.68839C440.45627,213.56169,439.59655,212.64831,438.53603,212.64831C437.47551,212.64831,436.61578,213.56169
				,436.61578,214.68839C436.61578,215.8151,437.47551,216.72847,438.53603,216.72847C439.59655,216.72847,440.45627,215.8151,440.45627,214.68839
				z"/>
			<path clip-path="url(#SVG_CP_1)" fill="#029400" fill-rule="evenodd" stroke="#000000" stroke-width="0.96012" stroke-miterlimit="10" stroke-linecap="round" stroke-linejoin="round" d="
				M244.83128,198.24775C244.83128,197.18732,243.91783,196.32767,242.79102,196.32767C241.66422,196.32767,240.75076,197.18732
				,240.75076,198.24775C240.75076,199.30818,241.66422,200.16782,242.79102,200.16782C243.91783,200.16782,244.83128,199.30818
				,244.83128,198.24775z"/>
			<path clip-path="url(#SVG_CP_1)" fill="#029400" fill-rule="evenodd" stroke="#000000" stroke-width="0.96012" stroke-miterlimit="10" stroke-linecap="round" stroke-linejoin="round" d="
				M260.91334,198.24775C260.91334,197.18732,260.05361,196.32767,258.99309,196.32767C257.93257,196.32767,257.07284,197.18732
				,257.07284,198.24775C257.07284,199.30818,257.93257,200.16782,258.99309,200.16782C260.05361,200.16782,260.91334,199.30818
				,260.91334,198.24775z"/>
			<path clip-path="url(#SVG_CP_1)" fill="#029400" fill-rule="evenodd" stroke="#000000" stroke-width="0.96012" stroke-miterlimit="10" stroke-linecap="round" stroke-linejoin="round" d="
				M277.47545,198.24775C277.47545,197.18732,276.562,196.32767,275.43519,196.32767C274.30839,196.32767,273.39493,197.18732,273.39493,198.24775
				C273.39493,199.30818,274.30839,200.16782,275.43519,200.16782C276.562,200.16782,277.47545,199.30818,277.47545,198.24775z"/>
			<path clip-path="url(#SVG_CP_1)" fill="#029400" fill-rule="evenodd" stroke="#000000" stroke-width="0.96012" stroke-miterlimit="10" stroke-linecap="round" stroke-linejoin="round" d="
				M293.79754,198.24775C293.79754,197.18732,292.88408,196.32767,291.75728,196.32767C290.63047,196.32767,289.71702,197.18732
				,289.71702,198.24775C289.71702,199.30818,290.63047,200.16782,291.75728,200.16782C292.88408,200.16782,293.79754,199.30818
				,293.79754,198.24775z"/>
			<path clip-path="url(#SVG_CP_1)" fill="#029400" fill-rule="evenodd" stroke="#000000" stroke-width="0.96012" stroke-miterlimit="10" stroke-linecap="round" stroke-linejoin="round" d="
				M309.87959,198.24775C309.87959,197.18732,309.01987,196.32767,307.95935,196.32767C306.89882,196.32767,306.0391,197.18732,
				306.0391,198.24775C306.0391,199.30818,306.89882,200.16782,307.95935,200.16782C309.01987,200.16782,309.87959,199.30818,309.87959,198.24775
				z"/>
			<path clip-path="url(#SVG_CP_1)" fill="#029400" fill-rule="evenodd" stroke="#000000" stroke-width="0.96012" stroke-miterlimit="10" stroke-linecap="round" stroke-linejoin="round" d="
				M326.20168,198.24775C326.20168,197.18732,325.34195,196.32767,324.28143,196.32767C323.22091,196.32767,322.36119,197.18732
				,322.36119,198.24775C322.36119,199.30818,323.22091,200.16782,324.28143,200.16782C325.34195,200.16782,326.20168,199.30818
				,326.20168,198.24775z"/>
			<path clip-path="url(#SVG_CP_1)" fill="#029400" fill-rule="evenodd" stroke="#000000" stroke-width="0.96012" stroke-miterlimit="10" stroke-linecap="round" stroke-linejoin="round" d="
				M342.76379,198.24775C342.76379,197.18732,341.85034,196.32767,340.72353,196.32767C339.59673,196.32767,338.68327,197.18732
				,338.68327,198.24775C338.68327,199.30818,339.59673,200.16782,340.72353,200.16782C341.85034,200.16782,342.76379,199.30818
				,342.76379,198.24775z"/>
			<path clip-path="url(#SVG_CP_1)" fill="#029400" fill-rule="evenodd" stroke="#000000" stroke-width="0.96012" stroke-miterlimit="10" stroke-linecap="round" stroke-linejoin="round" d="
				M359.08588,198.24775C359.08588,197.18732,358.17242,196.32767,357.04562,196.32767C355.91881,196.32767,355.00536,197.18732
				,355.00536,198.24775C355.00536,199.30818,355.91881,200.16782,357.04562,200.16782C358.17242,200.16782,359.08588,199.30818
				,359.08588,198.24775z"/>
			<path clip-path="url(#SVG_CP_1)" fill="#029400" fill-rule="evenodd" stroke="#000000" stroke-width="0.96012" stroke-miterlimit="10" stroke-linecap="round" stroke-linejoin="round" d="
				M375.16793,198.24775C375.16793,197.18732,374.30821,196.32767,373.24769,196.32767C372.18717,196.32767,371.32744,197.18732
				,371.32744,198.24775C371.32744,199.30818,372.18717,200.16782,373.24769,200.16782C374.30821,200.16782,375.16793,199.30818
				,375.16793,198.24775z"/>
			<path clip-path="url(#SVG_CP_1)" fill="#029400" fill-rule="evenodd" stroke="#000000" stroke-width="0.96012" stroke-miterlimit="10" stroke-linecap="round" stroke-linejoin="round" d="
				M391.49002,198.24775C391.49002,197.18732,390.6303,196.32767,389.56977,196.32767C388.50925,196.32767,387.64953,197.18732,
				387.64953,198.24775C387.64953,199.30818,388.50925,200.16782,389.56977,200.16782C390.6303,200.16782,391.49002,199.30818,391.49002,198.24775
				z"/>
			<path clip-path="url(#SVG_CP_1)" fill="#029400" fill-rule="evenodd" stroke="#000000" stroke-width="0.96012" stroke-miterlimit="10" stroke-linecap="round" stroke-linejoin="round" d="
				M408.05213,198.24775C408.05213,197.18732,407.13868,196.32767,406.01187,196.32767C404.88507,196.32767,403.97161,197.18732
				,403.97161,198.24775C403.97161,199.30818,404.88507,200.16782,406.01187,200.16782C407.13868,200.16782,408.05213,199.30818
				,408.05213,198.24775z"/>
			<path clip-path="url(#SVG_CP_1)" fill="#029400" fill-rule="evenodd" stroke="#000000" stroke-width="0.96012" stroke-miterlimit="10" stroke-linecap="round" stroke-linejoin="round" d="
				M424.37422,198.24775C424.37422,197.18732,423.46076,196.32767,422.33396,196.32767C421.20715,196.32767,420.2937,197.18732,
				420.2937,198.24775C420.2937,199.30818,421.20715,200.16782,422.33396,200.16782C423.46076,200.16782,424.37422,199.30818,424.37422,198.24775
				z"/>
			<path clip-path="url(#SVG_CP_1)" fill="#029400" fill-rule="evenodd" stroke="#000000" stroke-width="0.96012" stroke-miterlimit="10" stroke-linecap="round" stroke-linejoin="round" d="
				M440.45627,198.24775C440.45627,197.18732,439.59655,196.32767,438.53603,196.32767C437.47551,196.32767,436.61578,197.18732
				,436.61578,198.24775C436.61578,199.30818,437.47551,200.16782,438.53603,200.16782C439.59655,200.16782,440.45627,199.30818
				,440.45627,198.24775z"/>
			<path clip-path="url(#SVG_CP_1)" fill="#029400" fill-rule="evenodd" stroke="#000000" stroke-width="0.96012" stroke-miterlimit="10" stroke-linecap="round" stroke-linejoin="round" d="
				M244.83128,181.92711C244.83128,180.86668,243.91783,180.00704,242.79102,180.00704C241.66422,180.00704,240.75076,180.86668
				,240.75076,181.92711C240.75076,182.98754,241.66422,183.84719,242.79102,183.84719C243.91783,183.84719,244.83128,182.98754
				,244.83128,181.92711z"/>
			<path clip-path="url(#SVG_CP_1)" fill="#029400" fill-rule="evenodd" stroke="#000000" stroke-width="0.96012" stroke-miterlimit="10" stroke-linecap="round" stroke-linejoin="round" d="
				M260.91334,181.92711C260.91334,180.86668,260.05361,180.00704,258.99309,180.00704C257.93257,180.00704,257.07284,180.86668
				,257.07284,181.92711C257.07284,182.98754,257.93257,183.84719,258.99309,183.84719C260.05361,183.84719,260.91334,182.98754
				,260.91334,181.92711z"/>
			<path clip-path="url(#SVG_CP_1)" fill="#029400" fill-rule="evenodd" stroke="#000000" stroke-width="0.96012" stroke-miterlimit="10" stroke-linecap="round" stroke-linejoin="round" d="
				M277.47545,181.92711C277.47545,180.86668,276.562,180.00704,275.43519,180.00704C274.30839,180.00704,273.39493,180.86668,273.39493,181.92711
				C273.39493,182.98754,274.30839,183.84719,275.43519,183.84719C276.562,183.84719,277.47545,182.98754,277.47545,181.92711z"/>
			<path clip-path="url(#SVG_CP_1)" fill="#029400" fill-rule="evenodd" stroke="#000000" stroke-width="0.96012" stroke-miterlimit="10" stroke-linecap="round" stroke-linejoin="round" d="
				M293.79754,181.92711C293.79754,180.86668,292.88408,180.00704,291.75728,180.00704C290.63047,180.00704,289.71702,180.86668
				,289.71702,181.92711C289.71702,182.98754,290.63047,183.84719,291.75728,183.84719C292.88408,183.84719,293.79754,182.98754
				,293.79754,181.92711z"/>
			<path clip-path="url(#SVG_CP_1)" fill="#029400" fill-rule="evenodd" stroke="#000000" stroke-width="0.96012" stroke-miterlimit="10" stroke-linecap="round" stroke-linejoin="round" d="
				M309.87959,181.92711C309.87959,180.86668,309.01987,180.00704,307.95935,180.00704C306.89882,180.00704,306.0391,180.86668,
				306.0391,181.92711C306.0391,182.98754,306.89882,183.84719,307.95935,183.84719C309.01987,183.84719,309.87959,182.98754,309.87959,181.92711
				z"/>
			<path clip-path="url(#SVG_CP_1)" fill="#029400" fill-rule="evenodd" stroke="#000000" stroke-width="0.96012" stroke-miterlimit="10" stroke-linecap="round" stroke-linejoin="round" d="
				M326.20168,181.92711C326.20168,180.86668,325.34195,180.00704,324.28143,180.00704C323.22091,180.00704,322.36119,180.86668
				,322.36119,181.92711C322.36119,182.98754,323.22091,183.84719,324.28143,183.84719C325.34195,183.84719,326.20168,182.98754
				,326.20168,181.92711z"/>
			<path clip-path="url(#SVG_CP_1)" fill="#029400" fill-rule="evenodd" stroke="#000000" stroke-width="0.96012" stroke-miterlimit="10" stroke-linecap="round" stroke-linejoin="round" d="
				M342.76379,181.92711C342.76379,180.86668,341.85034,180.00704,340.72353,180.00704C339.59673,180.00704,338.68327,180.86668
				,338.68327,181.92711C338.68327,182.98754,339.59673,183.84719,340.72353,183.84719C341.85034,183.84719,342.76379,182.98754
				,342.76379,181.92711z"/>
			<path clip-path="url(#SVG_CP_1)" fill="#029400" fill-rule="evenodd" stroke="#000000" stroke-width="0.96012" stroke-miterlimit="10" stroke-linecap="round" stroke-linejoin="round" d="
				M359.08588,181.92711C359.08588,180.86668,358.17242,180.00704,357.04562,180.00704C355.91881,180.00704,355.00536,180.86668
				,355.00536,181.92711C355.00536,182.98754,355.91881,183.84719,357.04562,183.84719C358.17242,183.84719,359.08588,182.98754
				,359.08588,181.92711z"/>
			<path clip-path="url(#SVG_CP_1)" fill="#029400" fill-rule="evenodd" stroke="#000000" stroke-width="0.96012" stroke-miterlimit="10" stroke-linecap="round" stroke-linejoin="round" d="
				M375.16793,181.92711C375.16793,180.86668,374.30821,180.00704,373.24769,180.00704C372.18717,180.00704,371.32744,180.86668
				,371.32744,181.92711C371.32744,182.98754,372.18717,183.84719,373.24769,183.84719C374.30821,183.84719,375.16793,182.98754
				,375.16793,181.92711z"/>
			<path clip-path="url(#SVG_CP_1)" fill="#029400" fill-rule="evenodd" stroke="#000000" stroke-width="0.96012" stroke-miterlimit="10" stroke-linecap="round" stroke-linejoin="round" d="
				M391.49002,181.92711C391.49002,180.86668,390.6303,180.00704,389.56977,180.00704C388.50925,180.00704,387.64953,180.86668,
				387.64953,181.92711C387.64953,182.98754,388.50925,183.84719,389.56977,183.84719C390.6303,183.84719,391.49002,182.98754,391.49002,181.92711
				z"/>
			<path clip-path="url(#SVG_CP_1)" fill="#029400" fill-rule="evenodd" stroke="#000000" stroke-width="0.96012" stroke-miterlimit="10" stroke-linecap="round" stroke-linejoin="round" d="
				M408.05213,181.92711C408.05213,180.86668,407.13868,180.00704,406.01187,180.00704C404.88507,180.00704,403.97161,180.86668
				,403.97161,181.92711C403.97161,182.98754,404.88507,183.84719,406.01187,183.84719C407.13868,183.84719,408.05213,182.98754
				,408.05213,181.92711z"/>
			<path clip-path="url(#SVG_CP_1)" fill="#029400" fill-rule="evenodd" stroke="#000000" stroke-width="0.96012" stroke-miterlimit="10" stroke-linecap="round" stroke-linejoin="round" d="
				M424.37422,181.92711C424.37422,180.86668,423.46076,180.00704,422.33396,180.00704C421.20715,180.00704,420.2937,180.86668,
				420.2937,181.92711C420.2937,182.98754,421.20715,183.84719,422.33396,183.84719C423.46076,183.84719,424.37422,182.98754,424.37422,181.92711
				z"/>
			<path clip-path="url(#SVG_CP_1)" fill="#029400" fill-rule="evenodd" stroke="#000000" stroke-width="0.96012" stroke-miterlimit="10" stroke-linecap="round" stroke-linejoin="round" d="
				M440.45627,181.92711C440.45627,180.86668,439.59655,180.00704,438.53603,180.00704C437.47551,180.00704,436.61578,180.86668
				,436.61578,181.92711C436.61578,182.98754,437.47551,183.84719,438.53603,183.84719C439.59655,183.84719,440.45627,182.98754
				,440.45627,181.92711z"/>
		</g>
		<g id="KOPs">
			<path clip-path="url(#SVG_CP_1)" fill="#00FF00" fill-rule="evenodd" stroke="none" d="M37.20475,442.5773L36.96472,441.13724
				L36.0046,439.9372L34.80445,438.97716L33.36426,438.73715L31.92408,438.97716L30.72393,439.9372L30.00383,441.13724L29.52377,442.5773
				L30.00383,444.01736L30.72393,445.2174L31.92408,445.93743L33.36426,446.17744L34.80445,445.93743L36.0046,445.2174L36.96472,444.01736
				L37.20475,442.5773z"/>
			<path clip-path="url(#SVG_CP_1)" fill="#000000" fill-rule="evenodd" stroke="none" d="M37.44478,442.33729L37.20475,440.89723
				L36.24463,439.69719L35.04448,438.73715L33.60429,438.49714L31.92408,438.73715L30.72393,439.69719L29.7638,440.89723L29.52377,442.33729
				L29.7638,443.77735L30.72393,444.97739L31.92408,445.93743L33.60429,446.17744L35.04448,445.93743L36.24463,444.97739L37.20475,443.77735
				L37.44478,442.33729zM37.20475,442.33729L36.96472,443.77735L36.0046,444.97739L35.04448,445.69742L33.60429,445.93743L32.16411,445.69742
				L30.96396,444.97739L30.00383,443.77735L29.7638,442.33729L30.00383,440.89723L30.96396,439.9372L32.16411,438.97716L33.60429,438.73715
				L35.04448,438.97716L36.0046,439.9372L36.96472,440.89723L37.20475,442.33729z"/>
			<path clip-path="url(#SVG_CP_1)" fill="#00FF00" fill-rule="evenodd" stroke="none" d="M42.72546,454.81778L42.48543,453.37772
				L41.52531,452.17768L40.32515,451.21764L38.88497,450.97763L37.44478,451.21764L36.24463,452.17768L35.52454,453.37772L35.04448,454.81778
				L35.52454,456.25783L36.24463,457.45788L37.44478,458.17791L38.88497,458.41792L40.32515,458.17791L41.52531,457.45788L42.48543,456.25783
				L42.72546,454.81778z"/>
			<path clip-path="url(#SVG_CP_1)" fill="#000000" fill-rule="evenodd" stroke="none" d="M42.96549,454.57777L42.72546,453.13771
				L41.76534,451.93767L40.56518,450.97763L39.125,450.73762L37.44478,450.97763L36.24463,451.93767L35.28451,453.13771L35.04448,454.57777
				L35.28451,456.01783L36.24463,457.21787L37.44478,458.17791L39.125,458.41792L40.56518,458.17791L41.76534,457.21787L42.72546,456.01783
				L42.96549,454.57777zM42.72546,454.57777L42.48543,456.01783L41.52531,457.21787L40.56518,457.9379L39.125,458.17791L37.68482,457.9379
				L36.48466,457.21787L35.52454,456.01783L35.28451,454.57777L35.52454,453.13771L36.48466,452.17768L37.68482,451.21764L39.125,450.97763
				L40.56518,451.21764L41.52531,452.17768L42.48543,453.13771L42.72546,454.57777z"/>
			<path clip-path="url(#SVG_CP_1)" fill="#00FF00" fill-rule="evenodd" stroke="none" d="M26.88344,455.77782L26.6434,454.33776
				L25.68328,453.13771L24.48313,452.17768L23.04294,451.93767L21.60276,452.17768L20.40261,453.13771L19.68252,454.33776L19.20245,455.77782
				L19.68252,457.21787L20.40261,458.41792L21.60276,459.13795L23.04294,459.37796L24.48313,459.13795L25.68328,458.41792L26.6434,457.21787
				L26.88344,455.77782z"/>
			<path clip-path="url(#SVG_CP_1)" fill="#000000" fill-rule="evenodd" stroke="none" d="M27.12347,455.53781L26.88344,454.09775
				L25.92331,452.8977L24.72316,451.93767L23.28298,451.69766L21.60276,451.93767L20.40261,452.8977L19.44248,454.09775L19.20245,455.53781
				L19.44248,456.97786L20.40261,458.17791L21.60276,459.13795L23.28298,459.37796L24.72316,459.13795L25.92331,458.17791L26.88344,456.97786
				L27.12347,455.53781zM26.88344,455.53781L26.6434,456.97786L25.68328,458.17791L24.72316,458.89794L23.28298,459.13795L21.84279,458.89794
				L20.64264,458.17791L19.68252,456.97786L19.44248,455.53781L19.68252,454.09775L20.64264,453.13771L21.84279,452.17768L23.28298,451.93767
				L24.72316,452.17768L25.68328,453.13771L26.6434,454.09775L26.88344,455.53781z"/>
		</g>
		<g id="Other">
			<path clip-path="url(#SVG_CP_1)" fill="none" stroke="#000000" stroke-width="0.96012" stroke-miterlimit="10" stroke-linecap="round" stroke-linejoin="round" d="
				M0,659.06576L0,0L478.14109,0L478.14109,659.06576L0,659.06576z"/>
		</g>
	</g>
</svg>
